<svg xmlns="http://www.w3.org/2000/svg" viewBox="562 653 361.006 312.869"><defs><style>.a{fill:#c1c8d2;}</style></defs><path class="a" d="M400.933,186.517V30.083a6.1,6.1,0,0,0-6.017-6.017H94.083a6.1,6.1,0,0,0-6.017,6.017V186.517a6.1,6.1,0,0,0,6.017,6.017H394.917a6.1,6.1,0,0,0,6.017-6.017ZM425,30.083V234.65a30.172,30.172,0,0,1-30.083,30.083H292.633a39.631,39.631,0,0,0,3.008,14.572,138.378,138.378,0,0,0,6.017,13.349q3.008,5.735,3.008,8.179a12.2,12.2,0,0,1-12.033,12.033H196.367a12.2,12.2,0,0,1-12.033-12.033q0-2.632,3.008-8.273a133.575,133.575,0,0,0,6.017-13.161,39.346,39.346,0,0,0,3.008-14.666H94.083A30.172,30.172,0,0,1,64,234.65V30.083A28.968,28.968,0,0,1,72.837,8.837,28.968,28.968,0,0,1,94.083,0H394.917a28.968,28.968,0,0,1,21.246,8.837A28.968,28.968,0,0,1,425,30.083Z" transform="translate(498.003 653.003)"/></svg>