<svg xmlns="http://www.w3.org/2000/svg" viewBox="657 226 641.1 747.95"><defs><style>.a{fill:#c1c8d2;}</style></defs><path class="a" d="M740.718,158.605q11.687,11.687,20.034,31.721t8.348,36.73V707.881a39.9,39.9,0,0,1-40.069,40.069H168.069A39.9,39.9,0,0,1,128,707.881V40.069a38.641,38.641,0,0,1,11.687-28.382A38.641,38.641,0,0,1,168.069,0H542.044q16.7,0,36.73,8.348t31.721,20.034ZM555.4,56.764V213.7H712.336q-4.174-12.1-9.182-17.113L572.513,65.946Q567.5,60.938,555.4,56.764ZM715.675,694.525v-427.4H542.044a39.9,39.9,0,0,1-40.069-40.069V53.425H181.425v641.1ZM225.25,320.55v44.66h29.217L322.918,641.1h66.364l53.425-202.431a113.536,113.536,0,0,0,5.009-29.217h1.67l1.252,10.017a81,81,0,0,1,1.461,8.348,67.383,67.383,0,0,0,2.3,10.852L507.818,641.1h66.364l68.451-275.89H671.85V320.55H546.635v44.66H584.2L542.878,548.024a116.591,116.591,0,0,0-2.922,19.2l-.835,8.765h-1.67a19.261,19.261,0,0,0-.209-2.713q-.209-1.461-.626-3.339a14.287,14.287,0,0,1-.417-2.713q-.417-2.087-1.67-8.765t-2.087-10.435l-60.1-227.474H424.759l-60.1,227.474q-.835,3.756-1.878,10.226t-1.461,8.974l-1.67,8.765h-1.67l-.835-8.765a116.591,116.591,0,0,0-2.922-19.2L312.9,365.21h37.564V320.55Z" transform="translate(529 226)"/></svg>