<svg xmlns="http://www.w3.org/2000/svg" viewBox="307 1952 60 60"><defs><style>.a{fill:#f45b69;}</style></defs><path class="a" d="M168,176.75V170.5a1.2,1.2,0,0,0-1.25-1.25H163v-20a1.2,1.2,0,0,0-1.25-1.25h-12.5a1.2,1.2,0,0,0-1.25,1.25v6.25a1.2,1.2,0,0,0,1.25,1.25H153v12.5h-3.75A1.2,1.2,0,0,0,148,170.5v6.25a1.2,1.2,0,0,0,1.25,1.25h17.5a1.2,1.2,0,0,0,1.25-1.25Zm-5-35V135.5a1.2,1.2,0,0,0-1.25-1.25h-7.5A1.2,1.2,0,0,0,153,135.5v6.25a1.2,1.2,0,0,0,1.25,1.25h7.5a1.2,1.2,0,0,0,1.25-1.25ZM188,158a29.347,29.347,0,0,1-4.023,15.059,29.865,29.865,0,0,1-10.918,10.918,30.192,30.192,0,0,1-30.117,0,29.865,29.865,0,0,1-10.918-10.918,30.192,30.192,0,0,1,0-30.117,29.865,29.865,0,0,1,10.918-10.918,30.192,30.192,0,0,1,30.117,0,29.865,29.865,0,0,1,10.918,10.918A29.347,29.347,0,0,1,188,158Z" transform="translate(179 1824)"/></svg>