<svg xmlns="http://www.w3.org/2000/svg" viewBox="4794.701 140 16.327 15.604">
  <defs>
    <style>
      .cls-1 {
        fill: #ebebeb;
      }
    </style>
  </defs>
  <path id="linkedin" class="cls-1" d="M131.71,153.07V163.6H128.2V153.07Zm.223-3.253a1.683,1.683,0,0,1-.537,1.3,2,2,0,0,1-1.44.521h-.021a1.918,1.918,0,0,1-1.4-.521,1.742,1.742,0,0,1-.531-1.3,1.712,1.712,0,0,1,.547-1.3,2,2,0,0,1,1.43-.516,1.944,1.944,0,0,1,1.414.516A1.773,1.773,0,0,1,131.933,149.818Zm12.394,7.749V163.6h-3.5V157.97a3.075,3.075,0,0,0-.43-1.749,1.512,1.512,0,0,0-1.345-.632,1.722,1.722,0,0,0-1.121.367,2.261,2.261,0,0,0-.675.909,2.57,2.57,0,0,0-.117.861V163.6h-3.5q.021-4.241.021-6.877t-.011-3.146l-.011-.51h3.5V154.6h-.021a4.629,4.629,0,0,1,.436-.6,4.535,4.535,0,0,1,.6-.553,2.761,2.761,0,0,1,.925-.462,4.213,4.213,0,0,1,1.217-.165,3.775,3.775,0,0,1,2.923,1.206A5.061,5.061,0,0,1,144.326,157.566Z" transform="translate(4666.701 -8)"/>
</svg>
