<svg xmlns="http://www.w3.org/2000/svg" viewBox="925 1952 60 60"><defs><style>.a{fill:#f45b69;}</style></defs><path class="a" d="M17.143,0A1.03,1.03,0,0,1,17.9.318a1.03,1.03,0,0,1,.318.753V50.357a.952.952,0,0,1-.569.938L1.574,59.866a1,1,0,0,1-.5.134,1.03,1.03,0,0,1-.753-.318A1.03,1.03,0,0,1,0,58.929V9.643a.952.952,0,0,1,.569-.937L16.641.134A1,1,0,0,1,17.143,0ZM58.929,0a1.03,1.03,0,0,1,.753.318A1.03,1.03,0,0,1,60,1.071V50.357a.952.952,0,0,1-.569.938L43.359,59.866a1,1,0,0,1-.5.134,1.086,1.086,0,0,1-1.071-1.071V9.643a.952.952,0,0,1,.569-.937L58.426.134A1,1,0,0,1,58.929,0Zm-37.5,0A1.036,1.036,0,0,1,21.9.1L39.04,8.672a1.057,1.057,0,0,1,.6.971V58.929a1.084,1.084,0,0,1-1.54.971L20.96,51.328a1.057,1.057,0,0,1-.6-.971V1.071a1.03,1.03,0,0,1,.318-.753A1.03,1.03,0,0,1,21.429,0Z" transform="translate(925 1952)"/></svg>