<svg xmlns="http://www.w3.org/2000/svg" viewBox="718 231 371.34 618.9"><defs><style>.a{fill:#c1c8d2;}</style></defs><path class="a" d="M736.351,813.01a38.8,38.8,0,1,0-11.363,27.319A37.248,37.248,0,0,0,736.351,813.01Zm100.571-77.362v-340.4A15.688,15.688,0,0,0,821.45,379.78H573.89a15.688,15.688,0,0,0-15.473,15.472v340.4A15.688,15.688,0,0,0,573.89,751.12H821.45a15.688,15.688,0,0,0,15.473-15.472ZM744.088,325.626q0-7.736-7.736-7.736H658.989q-7.736,0-7.736,7.736t7.736,7.736h77.363Q744.088,333.363,744.088,325.626ZM883.34,317.89V813.01q0,25.143-18.374,43.516T821.45,874.9H573.89q-25.143,0-43.516-18.374T512,813.01V317.89q0-25.143,18.374-43.516T573.89,256H821.45q25.143,0,43.516,18.374T883.34,317.89Z" transform="translate(206 -25)"/></svg>