<?xml version="1.0" encoding="utf-8"?>
<!-- Generator: Adobe Illustrator 19.0.0, SVG Export Plug-In . SVG Version: 6.00 Build 0)  -->
<svg version="1.1" id="Layer_1" xmlns="http://www.w3.org/2000/svg" xmlns:xlink="http://www.w3.org/1999/xlink" x="0px" y="0px"
	 viewBox="0 0 28.2 27.5" style="enable-background:new 0 0 28.2 27.5;" xml:space="preserve">
<g>
	<path d="M13.7,0.6C13.7,0.6,13.8,0.6,13.7,0.6c0.1,0.1,0.1,0.1,0.1,0.1c0.4,0.4,0.9,0.6,1.3,0.6l0,0c0.4,0,0.7-0.2,1-0.6
		c0.1-0.2,0.3-0.5,0.3-0.7h0c-0.1,0.2-0.2,0.5-0.3,0.7c-0.3,0.4-0.6,0.6-1,0.6l0,0c-0.4,0-0.9-0.2-1.3-0.6
		C13.8,0.7,13.8,0.6,13.7,0.6C13.8,0.6,13.8,0.6,13.7,0.6c-0.2-0.2-0.4-0.3-0.6-0.5c0,0-0.1,0-0.1-0.1h0c0,0,0.1,0.1,0.1,0.1
		C13.3,0.2,13.5,0.4,13.7,0.6z"/>
	<path d="M0.9,1.8c0.3-0.3,0.6-0.5,0.8-0.9C1.7,0.7,1.8,0.4,1.8,0h0c0,0.4-0.1,0.7-0.2,0.9C1.4,1.3,1.1,1.5,0.9,1.8
		C0.5,2.1,0.2,2.4,0,2.9c0,0,0,0,0,0v0C0,3,0,3,0,2.9C0.2,2.4,0.5,2.1,0.9,1.8z"/>
	<path d="M15.1,0.7L15.1,0.7c0.1,0,0.3,0,0.4-0.1c0.1-0.1,0.2-0.2,0.2-0.3c0,0,0.1-0.1,0.1-0.1c0-0.1,0-0.1,0.1-0.2h0
		c0,0.1,0,0.1-0.1,0.2c0,0-0.1,0.1-0.1,0.1c-0.1,0.1-0.1,0.2-0.2,0.3C15.3,0.6,15.2,0.7,15.1,0.7L15.1,0.7c-0.4,0-0.7-0.3-1-0.6
		C14,0,14,0,14,0h0C14,0,14,0.1,14,0.1C14.3,0.4,14.7,0.7,15.1,0.7z"/>
	<path d="M0.2,4.1c0.1-0.3,0.1-0.7,0.2-0.9c0.2-0.4,0.5-0.7,0.8-1.1C1.5,2,1.7,1.7,1.9,1.5c0.2-0.3,0.4-0.6,0.5-0.9
		c0.1-0.2,0.1-0.4,0.2-0.6c0,0,0,0,0-0.1h0c0,0,0,0,0,0C2.6,0.3,2.5,0.5,2.4,0.6C2.3,0.9,2.1,1.2,1.9,1.5C1.7,1.7,1.5,1.9,1.3,2.2
		C0.9,2.5,0.6,2.8,0.4,3.2C0.4,3.4,0.3,3.8,0.2,4.1C0.2,4.4,0.1,4.8,0,5c0,0,0,0,0,0v0c0,0,0,0,0,0C0.1,4.8,0.2,4.4,0.2,4.1z"/>
	<path d="M1.3,8.3c0.5,0.2,1,0.4,1.2,0.9c0,0.3-0.1,0.5-0.2,0.7c-0.1,0.3-0.3,0.7-0.2,1.2c0.1,0.4,0.3,0.7,0.6,1
		c0.1,0.1,0.2,0.3,0.4,0.4c0.3,0.4,0.5,0.9,0.7,1.2c0.2,0.4,0.3,0.7,0.7,0.8c0.3,0.1,0.6,0.1,0.9,0.1c0.1,0,0.3,0,0.4,0
		c0.2,0,0.4,0,0.5-0.1c0.3-0.1,0.5-0.3,0.7-0.6C7,14,7.1,13.9,7.2,13.8c0.1-0.1,0.1-0.1,0.2-0.2c0.2-0.2,0.3-0.3,0.4-0.5
		c0-0.1,0-0.1,0-0.2c0,0,0-0.1,0-0.1l0,0l0,0c-0.2-0.2-0.3-0.4-0.5-0.5c-0.3-0.3-0.6-0.5-0.7-0.9c-0.1-0.2,0-0.5,0.1-0.7
		c0.1-0.3,0.4-0.6,0.7-0.9c0.2-0.1,0.3-0.3,0.5-0.4C8.6,8.7,9.5,8,10,7.4l0,0c0-0.1,0-0.2,0-0.3C10,6.8,9.8,6.5,9.5,6.2
		C9.2,6,8.9,5.8,8.6,5.7c0,0-0.1,0-0.1,0c-0.3-0.1-0.7,0-1,0c-0.3,0-0.6,0.1-0.8,0.1C6,5.7,5.6,5.3,5.5,4.7C5.3,3.9,5.8,3.4,6.3,2.9
		c0.4-0.4,0.8-0.7,0.9-1.2c0.1-0.5,0-1-0.1-1.3C7.1,0.3,7,0.1,7,0h0c0,0.1,0.1,0.3,0.1,0.4c0.1,0.3,0.2,0.8,0.1,1.3
		C7.1,2.2,6.7,2.5,6.3,2.9c-0.5,0.5-1.1,1-0.9,1.8c0.1,0.6,0.6,1,1.2,1.1c0.3,0,0.6,0,0.8,0c0.3-0.1,0.7-0.1,1,0c0,0,0.1,0,0.1,0
		C9.1,5.8,9.9,6.5,10,7.1c0,0.1,0,0.2,0,0.3C9.5,8,8.6,8.7,7.8,9.3C7.6,9.5,7.4,9.6,7.3,9.7c-0.4,0.3-0.6,0.6-0.7,0.9
		c-0.1,0.3-0.1,0.5-0.1,0.7c0.1,0.4,0.4,0.7,0.7,1c0.2,0.2,0.4,0.3,0.5,0.5c0,0.1,0,0.1,0,0.1c0,0.1,0,0.1,0,0.1
		c0,0.1-0.2,0.3-0.4,0.5c-0.1,0.1-0.1,0.2-0.2,0.2C7.1,13.9,7,14,7,14c-0.2,0.3-0.4,0.5-0.7,0.6c-0.2,0.1-0.5,0.1-0.9,0
		c-0.2,0-0.6-0.1-0.9-0.1c-0.4-0.1-0.5-0.4-0.7-0.8c-0.2-0.4-0.4-0.8-0.7-1.3c-0.1-0.2-0.2-0.3-0.4-0.4c-0.3-0.3-0.5-0.6-0.6-1
		c-0.1-0.6,0.1-0.9,0.2-1.2c0.1-0.2,0.2-0.4,0.2-0.7l0,0C2.3,8.7,1.8,8.5,1.3,8.3C1.2,8.3,1.1,8.2,0.9,8.2C0.6,8.1,0.3,8.1,0,8.1v0
		c0.3,0,0.6,0,0.9,0.1C1.1,8.2,1.2,8.3,1.3,8.3z"/>
	<path d="M7.9,0.4C8,0.5,8,0.6,8,0.8c0.1,0.3,0.2,0.6,0.2,0.8c0,0.2,0,0.4,0,0.5C8.2,2.5,7.9,2.7,7.7,3C7.4,3.4,7.1,3.7,7.1,4.2
		c0,0.4,0.5,0.5,1,0.5c0.1,0,0.2,0,0.3,0c0.4,0.1,0.8,0.2,1.2,0.3C9.7,5.2,9.9,5.2,10,5.3c0.3,0.1,0.5,0.3,0.8,0.3c0,0,0.1,0,0.1,0
		c0.2,0,0.4-0.1,0.5-0.1c0.2-0.1,0.3-0.1,0.4-0.2c0.3-0.1,0.5-0.2,0.9-0.3C12.9,5,13,5,13,5c0.4,0,0.8,0.1,1.1,0.2
		c0.3,0.1,0.6,0.2,0.9,0.2c0.1,0,0.1,0,0.2,0c0.4-0.1,0.8-0.3,1.1-0.7c0.2-0.4,0.4-0.8,0.5-1.3c0-0.1,0.1-0.4,0.1-0.6
		c0-0.2,0-0.3-0.1-0.4c-0.1-0.2-0.4-0.2-0.7-0.2c-0.1,0-0.3,0-0.4,0c-0.6-0.1-1.1-0.2-1.7-0.4c-0.5-0.2-0.9-0.4-1.3-0.6
		C12.1,1,11.5,0.6,11.1,0h0c0.4,0.6,1,1,1.6,1.3c0.3,0.2,0.8,0.4,1.3,0.6c0.6,0.2,1.1,0.3,1.7,0.4c0.1,0,0.3,0,0.4,0
		c0.3,0,0.6,0,0.7,0.2c0.1,0.1,0.1,0.2,0.1,0.4c0,0.2-0.1,0.4-0.1,0.6c-0.2,0.9-0.5,1.9-1.5,2c-0.1,0-0.1,0-0.2,0
		c-0.3,0-0.6-0.1-0.9-0.2C13.8,5.1,13.5,5,13,5c-0.1,0-0.1,0-0.2,0c-0.4,0-0.7,0.2-0.9,0.3c-0.1,0.1-0.3,0.1-0.4,0.2
		c-0.1,0.1-0.3,0.1-0.5,0.1c0,0-0.1,0-0.1,0c-0.3,0-0.5-0.2-0.8-0.3C9.9,5.2,9.7,5.1,9.6,5.1C9.2,4.9,8.7,4.8,8.4,4.7
		c-0.1,0-0.2,0-0.3,0c-0.5-0.1-1-0.1-1-0.5c0-0.5,0.3-0.8,0.6-1.1c0.2-0.3,0.5-0.6,0.6-1c0-0.1,0-0.3,0-0.5c0-0.2-0.1-0.5-0.2-0.8
		C8,0.6,8,0.5,7.9,0.4c0-0.1,0-0.2-0.1-0.3c0,0,0-0.1,0-0.1h0c0,0,0,0.1,0,0.1C7.9,0.2,7.9,0.3,7.9,0.4z"/>
	<path d="M0.9,0.9C1,0.7,1.2,0.4,1.2,0h0C1.1,0.4,1,0.7,0.9,0.9C0.7,1.1,0.5,1.3,0.2,1.4C0.2,1.5,0.1,1.5,0,1.6v0
		c0.1-0.1,0.2-0.1,0.2-0.2C0.5,1.3,0.7,1.1,0.9,0.9z"/>
	<path d="M8.8,1.2C8.9,1.3,8.9,1.5,9,1.7C9,2.2,8.8,2.6,8.5,2.9C8.3,3.1,8.2,3.3,8.1,3.6c0,0.1,0,0.1,0,0.2c0,0,0,0.1,0,0.1v0
		C8.2,4,8.4,4.2,8.5,4.3c0.6,0.3,1.5,0.4,2.1,0.5c0.1,0,0.2,0,0.3,0l0,0c0.3,0,0.5,0,0.8-0.1c0.3,0,0.6-0.1,0.9-0.1
		c0.1,0,0.2,0,0.3,0c0,0,0.1,0,0.1,0c0.1,0,0.2,0,0.3,0c0.3,0,0.5,0.1,0.7,0.1c0.3,0.1,0.5,0.1,0.9,0.1c0,0,0.1,0,0.1,0
		c0.3,0,0.6-0.4,0.7-0.8c0.1-0.4,0.1-0.8-0.3-1.1c-0.4-0.3-1.6-0.6-2.2-0.6c-0.1,0-0.2,0-0.3,0c-0.1,0-0.2,0-0.4,0
		c-0.4,0-0.8-0.2-1.2-0.6c-0.5-0.4-0.8-0.8-1.2-1.5c0-0.1-0.1-0.2-0.1-0.3h0c0,0.1,0.1,0.2,0.1,0.3c0.4,0.7,0.7,1,1.2,1.5
		c0.4,0.4,0.8,0.5,1.2,0.6c0.2,0,0.3,0,0.4,0c0.1,0,0.2,0,0.3,0c0.6,0.1,1.8,0.3,2.2,0.6c0.3,0.3,0.4,0.7,0.3,1.1
		c-0.1,0.4-0.4,0.7-0.7,0.8c0,0-0.1,0-0.1,0c-0.4,0-0.6-0.1-0.9-0.1c-0.2,0-0.4-0.1-0.7-0.1c-0.1,0-0.2,0-0.3,0c-0.1,0-0.1,0-0.1,0
		c-0.1,0-0.2,0-0.3,0c-0.3,0-0.6,0.1-0.9,0.1c-0.3,0-0.5,0.1-0.8,0.1l0,0c-0.1,0-0.2,0-0.3,0C10,4.6,9.1,4.5,8.5,4.2
		C8.4,4.2,8.2,4,8.1,3.9c0,0,0-0.1,0-0.1c0-0.1,0-0.1,0-0.2c0.1-0.3,0.2-0.5,0.4-0.7C8.8,2.6,9.1,2.2,9,1.7C9,1.5,8.9,1.3,8.8,1.2
		C8.8,1.1,8.7,1,8.7,1C8.6,0.7,8.5,0.4,8.4,0h0c0.1,0.4,0.2,0.7,0.3,1C8.7,1,8.8,1.1,8.8,1.2z"/>
	<path d="M1.4,6.4C1.5,6.2,1.7,6,1.9,5.8c0.3-0.4,0.5-0.7,0.9-1c0,0,0.1,0,0.1-0.1c0,0,0,0,0.1-0.1c0.2-0.2,0.5-0.4,0.8-0.5
		C3.9,4,4,3.9,4.2,3.7c0.1-0.1,0.3-0.2,0.4-0.3C4.8,3.3,5,3.1,5.3,2.9c0.1-0.1,0.2-0.1,0.3-0.2C6.1,2.4,6.7,2,6.8,1.3
		c0-0.4,0-0.9-0.3-1.3h0c0.2,0.4,0.3,0.9,0.3,1.3C6.7,2,6.1,2.4,5.6,2.7C5.5,2.8,5.4,2.9,5.3,2.9C5,3.1,4.8,3.2,4.6,3.4
		C4.5,3.5,4.3,3.6,4.2,3.7C4,3.8,3.8,4,3.7,4.1C3.4,4.2,3.1,4.4,2.9,4.6c0,0,0,0-0.1,0.1c0,0,0,0.1-0.1,0.1c-0.4,0.3-0.6,0.7-0.9,1
		C1.7,6,1.5,6.2,1.4,6.4C1,6.8,0.5,7.1,0,7.2v0C0.5,7.1,1,6.8,1.4,6.4z"/>
	<path d="M0.6,5.9c0.2-0.3,0.2-0.7,0.2-1.1c0-0.3,0-0.9,0.2-1.4c0.2-0.4,0.5-0.7,0.9-1c0.1,0,0.1-0.1,0.2-0.1C2.6,1.7,3,1.1,3.3,0.4
		c0-0.1,0-0.1,0.1-0.2c0-0.1,0.1-0.1,0.1-0.2c0,0,0,0,0,0h0c0,0,0,0,0,0c0,0.1-0.1,0.1-0.1,0.2c0,0.1,0,0.1-0.1,0.2
		C3,1.1,2.6,1.7,1.9,2.3c-0.1,0-0.1,0.1-0.2,0.1C1.4,2.8,1,3.1,0.9,3.5C0.7,4,0.7,4.5,0.7,4.8C0.7,5.2,0.7,5.7,0.6,5.9
		C0.4,6.1,0.2,6.2,0,6.3v0C0.2,6.2,0.4,6.1,0.6,5.9z"/>
	<path d="M0.2,0.4C0.3,0.3,0.3,0.1,0.3,0h0C0.3,0.1,0.3,0.3,0.2,0.4C0.1,0.4,0.1,0.4,0,0.4v0v0l0,0C0.1,0.5,0.1,0.4,0.2,0.4z"/>
	<path d="M4.2,0.2C4,0.4,3.9,0.7,3.8,1c0,0,0,0.1-0.1,0.1C3.5,1.6,3.3,2.1,3,2.4C2.9,2.6,2.6,2.8,2.4,2.9C2,3.1,1.7,3.3,1.5,3.7
		C1.5,3.8,1.5,4,1.5,4.2c0,0.1,0.1,0.2,0.3,0.2l0,0c0.2,0,0.4-0.1,0.5-0.2C2.5,4,2.7,3.8,2.8,3.5C2.9,3.4,3,3.3,3.1,3.2
		c0,0,0.2-0.2,0.3-0.3c0.3-0.2,0.7-0.3,1.1-0.5C5,2.3,5.6,2.1,6,1.7C6.2,1.6,6.3,1.3,6.3,1c0-0.3-0.1-0.6-0.3-0.9
		c0,0-0.1-0.1-0.1-0.1h0c0,0,0.1,0.1,0.1,0.1C6.2,0.4,6.3,0.7,6.3,1c0,0.3-0.1,0.6-0.3,0.7C5.6,2,5,2.2,4.5,2.4
		C4.1,2.6,3.7,2.7,3.4,2.9C3.3,3,3.1,3.1,3.1,3.2C3,3.3,2.9,3.4,2.8,3.5C2.6,3.7,2.5,4,2.3,4.1C2.2,4.2,2,4.3,1.8,4.3
		c-0.1,0-0.2-0.1-0.2-0.2c0-0.2,0-0.3,0-0.5C1.7,3.3,2,3.1,2.4,2.9C2.6,2.8,2.9,2.6,3,2.4c0.3-0.4,0.5-0.9,0.7-1.3
		c0,0,0-0.1,0.1-0.1C3.9,0.7,4,0.4,4.2,0.2C4.3,0.1,4.4,0.1,4.5,0h0C4.3,0.1,4.3,0.1,4.2,0.2z"/>
	<path d="M9.4,3.5L9.4,3.5C9.4,3.6,9.4,3.6,9.4,3.5l0.1,0.1l0,0c0.1,0.1,0.2,0.1,0.4,0.1l0,0c0.2,0,0.5-0.1,0.6-0.2
		c0.1-0.1,0.1-0.2,0.1-0.3c0-0.2-0.2-0.3-0.4-0.3l0,0l0,0C9.7,3,9.3,3.2,9.4,3.5L9.4,3.5z M10,3c0.2,0.1,0.4,0.1,0.4,0.3
		c0,0.1,0,0.2-0.1,0.3c-0.1,0.1-0.3,0.2-0.6,0.2l0,0c-0.2,0-0.3,0-0.4-0.1l0,0c0,0,0-0.1-0.1-0.1C9.3,3.2,9.8,3,10,3z"/>
	<path d="M12.9,3.8L12.9,3.8L12.9,3.8C13.1,3.9,13.5,4,13.8,4l0,0c0.2,0,0.6,0,0.6-0.3v0c0-0.1,0-0.2-0.1-0.3
		c-0.1-0.1-0.4-0.2-0.7-0.2C13.3,3.2,12.9,3.4,12.9,3.8L12.9,3.8L12.9,3.8C12.9,3.7,12.9,3.7,12.9,3.8z M13.6,3.2
		c0.3,0,0.5,0.1,0.7,0.2c0.1,0.1,0.1,0.2,0.1,0.2C14.3,4,14,4,13.8,4l0,0c-0.3,0-0.6-0.1-0.9-0.2l0,0c0,0,0-0.1,0-0.1
		C12.9,3.4,13.3,3.2,13.6,3.2z"/>
	<path d="M3.6,10c-0.1,0.3-0.2,0.6-0.1,1.1c0.2,0.9,0.5,1.5,0.9,2c0.1,0.1,0.2,0.2,0.3,0.3c0.2,0.1,0.4,0.2,0.7,0.2l0,0
		c0.3,0,0.5-0.1,0.6-0.2c0.2-0.2,0.2-0.4,0.2-0.7c0-0.2-0.1-0.4-0.2-0.6c-0.1-0.2-0.1-0.4-0.2-0.6C5.7,10.9,6,10.2,6.6,9.7
		c0.3-0.2,0.5-0.4,0.8-0.6c0.3-0.2,0.5-0.4,0.8-0.6c0.4-0.4,0.9-0.8,0.9-1.4v0v0c0-0.3-0.1-0.6-0.5-0.8C8.5,6.1,8.3,6.1,8,6.1
		c-0.2,0-0.5,0-0.7,0.1C7,6.2,6.8,6.3,6.5,6.3c-0.1,0-0.1,0-0.2,0C6.2,6.2,6,6.2,5.8,6.2C5.6,6.1,5.3,6,5.1,6C5.1,6,5,6,5,6
		c-0.3,0-0.5,0.3-0.8,0.5C3.9,6.8,3.6,7.2,3.5,7.4c0,0.1,0,0.3,0,0.4c0,0.2,0.1,0.4,0.1,0.5c0.1,0.3,0.1,0.6,0.1,1
		C3.7,9.6,3.7,9.8,3.6,10z M3.6,8.4c0-0.2-0.1-0.3-0.1-0.5c0-0.1,0-0.3,0-0.4c0.1-0.3,0.4-0.6,0.7-0.9C4.5,6.3,4.8,6.1,5,6.1
		c0,0,0.1,0,0.1,0c0.2,0,0.4,0.1,0.7,0.1c0.2,0,0.3,0.1,0.5,0.1c0.1,0,0.1,0,0.2,0c0.3,0,0.6,0,0.8-0.1c0.2,0,0.5-0.1,0.7-0.1
		c0.3,0,0.5,0.1,0.7,0.2C9,6.5,9.1,6.8,9.1,7.1c-0.1,0.6-0.5,1-0.9,1.4C7.9,8.7,7.7,8.9,7.4,9.1C7.1,9.3,6.9,9.4,6.6,9.7
		c-0.6,0.5-0.9,1.2-0.8,1.9c0,0.2,0.1,0.4,0.2,0.6c0.1,0.2,0.1,0.4,0.2,0.6c0,0.3,0,0.6-0.2,0.7c-0.1,0.2-0.3,0.2-0.6,0.2l0,0
		c-0.2,0-0.5-0.1-0.7-0.2c-0.1-0.1-0.2-0.2-0.3-0.3c-0.4-0.5-0.6-1.1-0.9-2c0-0.5,0-0.8,0.1-1.1c0-0.2,0.1-0.4,0.1-0.6
		C3.8,8.9,3.7,8.6,3.6,8.4z"/>
	<path d="M4.4,10c0,0.1,0,0.1,0,0.2c0,0.2,0.1,0.5,0.3,0.6l0,0h0c0.3,0,0.5-0.3,0.6-0.5C5.5,10.1,5.5,10,5.6,10C6,9.5,6.5,9.2,7,8.8
		c0.3-0.2,0.6-0.4,0.9-0.7C7.9,8.1,8,8.1,8,8c0-0.1,0.1-0.1,0.1-0.2c0.2-0.3,0.3-0.7,0.2-0.9C8.3,6.8,8.1,6.6,7.7,6.6
		c-0.1,0-0.1,0-0.2,0c-0.1,0-0.3,0-0.5,0.1c-0.2,0-0.4,0.1-0.7,0.1c0,0-0.1,0-0.1,0c-0.6,0.1-1,0.1-1.3,0.5C4.6,7.6,4.4,8,4.4,8.5
		c0,0.3,0,0.7,0,1C4.4,9.7,4.4,9.8,4.4,10z M4.4,8.5c0-0.5,0.2-0.9,0.4-1.2c0.4-0.4,0.7-0.5,1.3-0.5c0,0,0.1,0,0.1,0
		c0.2,0,0.5-0.1,0.7-0.1c0.2,0,0.3-0.1,0.5-0.1c0.1,0,0.1,0,0.2,0c0.5,0,0.6,0.2,0.7,0.3c0.1,0.2,0,0.6-0.2,0.9C8.1,7.9,8.1,7.9,8,8
		C8,8.1,7.9,8.1,7.8,8.2l0,0C7.6,8.4,7.3,8.6,6.9,8.8C6.5,9.1,6,9.5,5.6,9.9c-0.1,0.1-0.1,0.2-0.2,0.3c-0.2,0.3-0.4,0.5-0.6,0.5
		c-0.2-0.1-0.3-0.4-0.3-0.6c0-0.1,0-0.1,0-0.2c0-0.1,0-0.3,0-0.4C4.4,9.2,4.4,8.9,4.4,8.5z"/>
	<path d="M12.9,8.4c0.1,0.9,0.2,1.8,0.9,2.4c0.5,0.4,1.3,0.9,2,0.9l0,0c0.5,0,0.8-0.2,1.1-0.5c0.2-0.3,0.4-0.6,0.5-1
		c0,0,0-0.1,0-0.1c0-0.1,0.1-0.2,0.1-0.2c0.2-0.4,0.3-0.8,0.4-1.2c0.1-0.7-0.2-1-0.5-1.3c-0.5-0.4-1.2-0.5-1.9-0.5
		c-0.2,0-0.4,0-0.6,0c-0.3,0-0.7-0.1-1-0.1c-0.3,0-0.6,0-0.7,0.1c-0.5,0.3-0.4,1.1-0.4,1.5L12.9,8.4z M13.3,6.8
		c0.1-0.1,0.3-0.1,0.7-0.1c0.3,0,0.7,0,1,0.1c0.2,0,0.4,0,0.6,0c0.7,0,1.4,0.1,1.9,0.5c0.3,0.3,0.6,0.6,0.5,1.3
		c0,0.3-0.2,0.7-0.4,1.2c0,0.1-0.1,0.2-0.1,0.2c0,0,0,0.1,0,0.1c-0.1,0.4-0.3,0.7-0.5,1c-0.3,0.3-0.7,0.5-1.1,0.5
		c-0.7,0-1.5-0.4-2-0.9c-0.7-0.6-0.8-1.5-0.9-2.4l0-0.1C12.8,8,12.8,7.2,13.3,6.8z"/>
	<path d="M13.6,8.6c0.1,0.8,0.2,1.5,0.8,2c0.3,0.2,0.8,0.5,1.4,0.5l0,0c0.3,0,0.5-0.1,0.7-0.2c0.5-0.4,0.7-1.2,0.8-1.8
		c0-0.7-0.2-1.3-0.7-1.6c-0.4-0.3-0.9-0.3-1.5-0.3c-0.1,0-0.2,0-0.4,0c-0.3,0-0.8,0-1,0.4c-0.1,0.3-0.1,0.6-0.1,0.9
		C13.6,8.5,13.6,8.5,13.6,8.6z M13.7,7.6c0.2-0.3,0.6-0.4,1-0.4c0.1,0,0.2,0,0.4,0c0.6,0,1.1,0.1,1.5,0.3c0.4,0.3,0.7,0.9,0.6,1.6
		c0,0.6-0.3,1.4-0.8,1.8c-0.2,0.1-0.4,0.2-0.7,0.2l0,0c-0.5,0-1.1-0.3-1.4-0.5c-0.6-0.5-0.7-1.2-0.8-2c0-0.1,0-0.1,0-0.2
		C13.6,8.1,13.6,7.8,13.7,7.6z"/>
	<path d="M5.6,8.4L5.6,8.4C5.6,8.5,5.6,8.5,5.6,8.4c0.1,0.1,0.1,0.1,0.1,0.1l0,0h0C6.1,8.5,6.5,8.3,6.8,8C6.9,8,7.1,7.8,7.1,7.7l0,0
		l0,0c0,0,0,0-0.1-0.1c0,0,0,0,0,0l0,0h0c-0.1,0-0.1,0-0.2,0c-0.3,0-0.8,0.1-1,0.4C5.7,8,5.6,8.2,5.6,8.4L5.6,8.4z M5.8,7.9
		c0.3-0.3,0.7-0.4,1-0.4c0.1,0,0.1,0,0.2,0c0,0,0,0,0,0c0,0,0,0,0.1,0.1c0,0.2-0.2,0.3-0.3,0.4C6.5,8.3,6.1,8.5,5.7,8.5
		c0,0,0,0-0.1-0.1c0,0,0,0-0.1,0C5.6,8.2,5.7,8.1,5.8,7.9z"/>
	<path d="M14.9,10.2c0.2,0.1,0.5,0.2,0.7,0.2l0,0c0.3,0,0.5-0.1,0.7-0.4C16.7,9.5,16.5,8.4,16,8c-0.2-0.1-0.4-0.3-0.8-0.3
		c-0.1,0-0.2,0-0.3,0c-0.4,0.1-0.6,0.4-0.6,0.9C14.2,9.1,14.3,9.8,14.9,10.2z M14.9,7.7c0.1,0,0.2,0,0.3,0c0.4,0,0.7,0.1,0.8,0.3
		c0.3,0.2,0.5,0.6,0.5,1c0.1,0.4,0,0.8-0.2,1.1c-0.2,0.2-0.4,0.4-0.7,0.4l0,0c-0.2,0-0.5-0.1-0.7-0.2c-0.6-0.4-0.7-1.1-0.7-1.5
		C14.2,8.1,14.5,7.8,14.9,7.7z"/>
	<path d="M1.6,13.9C1.7,14,1.7,14,1.8,14.1l0,0c0.1,0.1,0.2,0.3,0.4,0.3c0.2,0,0.5-0.3,0.5-0.7c0-0.3-0.2-0.5-0.6-0.7
		C2,13,2,13,2,13c-0.2-0.1-0.4-0.2-0.5-0.3c-0.1-0.4-0.1-0.8-0.1-1.4c0-0.4,0-0.9-0.1-1.2C1.2,9.3,0.8,8.9,0.2,8.7
		c-0.1,0-0.1,0-0.2,0v0c0.1,0,0.1,0,0.2,0c0.6,0.2,1,0.6,1.1,1.3c0.1,0.4,0.1,0.8,0.1,1.2c0,0.5,0,1,0.1,1.4C1.6,12.8,1.8,12.9,2,13
		c0,0,0.1,0,0.1,0c0.4,0.2,0.6,0.4,0.6,0.7c0.1,0.4-0.2,0.6-0.4,0.7c-0.2,0-0.3-0.2-0.4-0.3l0,0C1.8,14,1.7,13.9,1.6,13.9
		c-0.2-0.3-0.3-0.6-0.8-0.5c-0.2,0-0.5,0.2-0.8,0.4v0c0.3-0.2,0.6-0.3,0.8-0.4C1.3,13.2,1.5,13.6,1.6,13.9z"/>
	<path d="M0.3,12.1c0.3-0.3,0.4-0.8,0.4-1.3c0-0.5-0.2-0.9-0.5-1.2C0.2,9.6,0.1,9.5,0,9.5v0c0.1,0,0.2,0.1,0.3,0.1
		c0.3,0.3,0.5,0.7,0.5,1.2C0.8,11.3,0.6,11.8,0.3,12.1c-0.1,0.1-0.2,0.2-0.3,0.3v0C0.1,12.3,0.2,12.2,0.3,12.1z"/>
	<path d="M12.1,12.2c0-0.1-0.1-0.2-0.1-0.3c-0.3-0.7-0.9-1.4-1.4-1.8C10.3,9.8,10,9.7,9.8,9.6c0,0-0.1,0-0.1,0
		c-0.6,0-1.2,0.6-1.3,1.1c0,0,0,0,0,0.1c0,0,0,0.1,0,0.1v0l0,0c0.2,0.5,0.4,0.9,0.7,1.3c0.1,0.2,0.2,0.4,0.4,0.5
		c0.4,0.4,1,0.6,1.5,0.6l0,0c0.3,0,0.5-0.1,0.7-0.2C12,12.9,12.1,12.6,12.1,12.2z M10.9,13.3L10.9,13.3c-0.5,0-1.1-0.2-1.5-0.6
		c-0.1-0.1-0.3-0.3-0.4-0.5c-0.2-0.4-0.5-0.8-0.7-1.3c0,0,0-0.1,0-0.1c0,0,0,0,0-0.1c0-0.5,0.7-1.1,1.3-1.1c0,0,0.1,0,0.1,0
		c0.2,0,0.5,0.2,0.8,0.5c0.5,0.4,1.1,1.1,1.4,1.8c0,0.1,0.1,0.2,0.1,0.3c0.1,0.3-0.1,0.6-0.4,0.9C11.5,13.2,11.2,13.3,10.9,13.3z"/>
	<path d="M10.8,11.1c-0.3-0.3-0.6-0.4-0.9-0.5c0,0-0.1,0-0.1,0c-0.2,0-0.3,0.1-0.4,0.2c-0.1,0.1-0.2,0.3-0.2,0.5
		c0.1,0.5,0.2,0.9,0.6,1.2c0.2,0.2,0.6,0.3,0.9,0.3l0,0c0.4,0,0.6-0.2,0.7-0.5c0-0.1,0-0.2,0-0.3C11.3,11.7,11.1,11.4,10.8,11.1z
		 M11.4,12.3c-0.1,0.3-0.3,0.4-0.7,0.4l0,0c-0.3,0-0.6-0.1-0.8-0.3c-0.3-0.3-0.5-0.7-0.6-1.2c0-0.2,0-0.4,0.2-0.5
		c0.1-0.1,0.2-0.1,0.4-0.1c0,0,0.1,0,0.1,0c0.5,0.1,1.3,0.8,1.4,1.4C11.4,12.1,11.4,12.2,11.4,12.3z"/>
	<path d="M14,13.3L14,13.3L14,13.3c0,0-0.1,0-0.1,0c-0.1,0-0.1,0-0.2,0c-0.4,0.1-0.8,0.5-1,0.8c-0.1,0.2-0.1,0.5,0,0.8
		c0,0.2,0.1,0.5,0,0.7c-0.1,0.3-0.4,0.5-0.7,0.7c-0.3,0.2-0.6,0.4-0.7,0.8c0,0.2,0,0.5,0.2,0.7c0.2,0.3,0.7,0.5,1.1,0.5l0,0
		c0.3,0,0.5-0.1,0.7-0.2c0.1-0.1,0.2-0.3,0.3-0.4l0,0c0.1-0.2,0.1-0.5,0.2-0.7c0-0.2,0.1-0.5,0.1-0.7c0-0.1,0.1-0.3,0.1-0.4
		c0.1-0.3,0.3-0.6,0.2-1.4C14.3,14.1,14.2,13.5,14,13.3z M14.1,15.8c0,0.1-0.1,0.2-0.1,0.4c-0.1,0.2-0.1,0.5-0.1,0.7
		c0,0.3-0.1,0.5-0.2,0.7l0,0c-0.1,0.2-0.2,0.3-0.3,0.4c-0.2,0.1-0.4,0.2-0.7,0.2c-0.4,0-0.8-0.2-1.1-0.4c-0.2-0.2-0.2-0.4-0.2-0.7
		c0.1-0.3,0.4-0.5,0.7-0.7c0.3-0.2,0.6-0.4,0.7-0.7c0.1-0.2,0-0.4,0-0.7c0-0.3-0.1-0.5,0-0.8c0.1-0.4,0.5-0.7,1-0.8
		c0.1,0,0.1,0,0.2,0c0,0,0.1,0,0.1,0c0.3,0.2,0.3,0.7,0.4,1.1C14.4,15.2,14.3,15.5,14.1,15.8z"/>
	<path d="M2,15.9c-0.1-0.1-0.1-0.1-0.2-0.1c-0.1,0-0.3,0.1-0.4,0.2c-0.2,0.2-0.2,0.4-0.2,0.6c0.1,0.3,0.3,0.4,0.5,0.4l0,0
		c0.2,0,0.3-0.1,0.4-0.2C2.2,16.6,2.2,16.1,2,15.9z M2,16.9C2,17,1.8,17.1,1.7,17.1l0,0c-0.2,0-0.5-0.1-0.5-0.4
		c0-0.2,0.1-0.4,0.2-0.6c0.1-0.1,0.3-0.2,0.4-0.2c0.1,0,0.1,0,0.2,0.1C2.2,16.1,2.2,16.6,2,16.9z"/>
	<path d="M6.7,17.6C6.7,17.6,6.7,17.6,6.7,17.6L6.7,17.6L6.7,17.6c-0.1-0.1-0.1-0.1-0.2-0.1c-0.1,0-0.2,0-0.3,0.1
		c-0.1,0.1-0.1,0.2-0.1,0.2l0,0C6.2,18,6.3,18,6.4,18l0,0C6.5,18,6.7,17.9,6.7,17.6L6.7,17.6L6.7,17.6C6.7,17.7,6.7,17.7,6.7,17.6z
		 M6.4,18L6.4,18c-0.1,0-0.2,0-0.2-0.1c0-0.1,0-0.2,0.1-0.2c0.1-0.1,0.2-0.1,0.3-0.1c0.1,0,0.1,0,0.2,0.1c0,0,0,0,0,0.1
		c0,0,0,0,0,0.1C6.7,17.9,6.5,18,6.4,18z"/>
	<path d="M24.4,0.2c0.3,0.2,0.7,0.2,1,0c0.2-0.1,0.3-0.2,0.4-0.3h0c-0.1,0.1-0.2,0.2-0.4,0.3C25,0.4,24.7,0.4,24.4,0.2
		c-0.1-0.1-0.2-0.1-0.3-0.2h0C24.1,0.1,24.2,0.2,24.4,0.2z"/>
	<path d="M13.2,0.8C13.3,0.9,13.4,1,13.5,1c0.3,0.2,0.5,0.4,0.8,0.5c0.3,0.2,0.6,0.2,0.9,0.2c0.2,0,0.5-0.1,0.7-0.2
		c0.6-0.3,1-1,1.1-1.6h0c-0.1,0.6-0.5,1.3-1.1,1.6c-0.5,0.2-1,0.2-1.6-0.1c-0.3-0.1-0.5-0.3-0.8-0.5C13.4,0.9,13.3,0.9,13.2,0.8
		c-0.1-0.1-0.3-0.2-0.4-0.3c-0.2-0.2-0.5-0.3-0.7-0.5h0c0.2,0.2,0.5,0.3,0.7,0.5C12.9,0.6,13,0.7,13.2,0.8z"/>
	<path d="M17.8,1c0.1,0.2,0.3,0.3,0.6,0.3c0.2,0,0.3,0,0.4,0h0c0,0,0.1,0,0.1,0c0.1,0,0.2,0,0.4,0.1c0.1,0,0.1,0,0.2,0
		c0.1,0,0.1,0,0.2,0c0.2,0,0.4,0.1,0.6,0.2c0.1,0,0.2,0.1,0.2,0.1c0.4,0.2,0.8,0.3,1,0.7c0,0,0,0,0,0.1C21.7,2.7,21.9,3,22,3.2
		c0.2,0.3,0.3,0.6,0.5,0.9c0.2,0.3,0.5,0.6,0.7,0.9c0.1,0.1,0.2,0.2,0.3,0.3c0.4,0.5,0.8,1,1.5,1h0c0.2,0,0.4,0,0.6-0.1
		c0.6-0.2,1.7-0.6,2.1-1.5c0.1-0.2,0.2-0.6,0.2-0.9C28,3.5,28.1,3.2,28.2,3v0C28.1,3.2,28,3.5,28,3.8c-0.1,0.4-0.1,0.7-0.2,0.9
		c-0.4,0.9-1.5,1.3-2.1,1.5c-0.2,0.1-0.4,0.1-0.6,0.1h0c-0.7,0-1.1-0.5-1.5-0.9c-0.1-0.1-0.2-0.2-0.3-0.3c-0.3-0.3-0.5-0.6-0.7-0.9
		c-0.2-0.3-0.4-0.6-0.5-0.9c-0.1-0.3-0.3-0.6-0.5-0.8c0,0,0,0,0-0.1c-0.3-0.3-0.6-0.5-1-0.7c-0.1,0-0.2-0.1-0.2-0.1
		c-0.2-0.1-0.4-0.1-0.6-0.2c-0.1,0-0.1,0-0.2,0c-0.1,0-0.1,0-0.2,0c-0.1,0-0.2-0.1-0.4-0.1c0,0-0.1,0-0.1,0l0,0c-0.1,0-0.3,0-0.4,0
		C18.1,1.3,17.9,1.2,17.8,1c-0.1-0.2,0-0.6,0-0.9c0,0,0-0.1,0-0.1h0c0,0,0,0.1,0,0.1C17.7,0.5,17.7,0.8,17.8,1z"/>
	<path d="M23.2,0.4c0.4,0.5,1.1,0.8,1.8,0.8c0.2,0,0.4,0,0.5-0.1c0.7-0.2,0.9-0.6,1-1.2h0c0,0.2-0.1,0.3-0.1,0.5
		c-0.2,0.4-0.4,0.6-0.8,0.7c-0.2,0-0.4,0.1-0.5,0.1C24.3,1.2,23.6,0.9,23.2,0.4c0-0.1-0.1-0.3-0.1-0.4h0C23.1,0.1,23.1,0.3,23.2,0.4
		L23.2,0.4z"/>
	<path d="M19.5,0.7c0.3,0,0.7,0.2,1,0.3c0.2,0.1,0.4,0.1,0.6,0.2c0.1,0,0.3,0.1,0.4,0.1c0.1,0,0.2,0,0.3,0l0,0c0.2,0,0.3,0,0.3-0.1
		c0.1-0.2,0.2-0.7,0.2-1.1h0c0,0.4-0.1,0.9-0.2,1.1c0,0.1-0.1,0.1-0.3,0.1c-0.1,0-0.2,0-0.3,0c-0.1,0-0.3,0-0.4-0.1
		C20.9,1,20.7,1,20.5,0.9C20.2,0.8,19.8,0.7,19.5,0.7c-0.3-0.1-0.6-0.3-0.8-0.7h0C18.8,0.4,19.1,0.6,19.5,0.7z"/>
	<path d="M27.1,0.3c0,0.5,0,0.9-0.4,1.1c-0.3,0.3-0.9,0.3-1.3,0.4c0,0-0.1,0-0.1,0c-0.1,0-0.1,0-0.2,0l0,0c-0.4,0-0.9-0.1-1.3-0.3
		c-0.4-0.1-0.8-0.3-1.2-0.3h0l0,0c-0.2,0.1-0.3,0.3-0.3,0.5c0.1,0.8,0.3,1.4,0.9,2.2c0.1,0.2,0.2,0.3,0.3,0.5
		c0.2,0.3,0.4,0.5,0.6,0.7c0.3,0.4,0.7,0.5,1.2,0.5l0,0c0.5,0,1.1-0.2,1.6-0.7c0.5-0.6,0.6-1.3,0.6-2.1c0-0.1,0-0.1,0-0.2
		c0-0.3,0-0.7,0.2-0.8c0.1-0.2,0.3-0.3,0.4-0.4v0C28,1.7,27.9,1.8,27.7,2c-0.1,0.2-0.2,0.5-0.2,0.8c0,0.1,0,0.1,0,0.2
		c0,0.7-0.1,1.5-0.6,2c-0.5,0.4-1.1,0.7-1.6,0.7c-0.5,0-0.8-0.2-1.2-0.5c-0.2-0.2-0.4-0.5-0.6-0.7c-0.1-0.2-0.2-0.3-0.3-0.5
		c-0.6-0.8-0.9-1.4-0.9-2.2c0-0.2,0-0.4,0.2-0.5c0.4,0,0.8,0.2,1.2,0.3c0.4,0.1,0.9,0.3,1.3,0.3l0,0c0.1,0,0.2,0,0.2,0
		c0,0,0.1,0,0.1,0c0.4-0.1,1-0.1,1.3-0.4C27.1,1.2,27.1,0.8,27.1,0.3c0-0.1,0-0.2,0-0.3c0,0,0,0,0,0h0c0,0,0,0,0,0
		C27.1,0.1,27.1,0.2,27.1,0.3z"/>
	<path d="M27.3,6.8L27.3,6.8c-0.1,0.1-0.2,0.2-0.2,0.3l0,0l0,0c0,0,0.1,0,0.1,0.1l0,0h0c0.2,0,0.3,0.1,0.5,0.1l0,0
		c0.2,0,0.3,0,0.5-0.1v0c-0.2,0-0.3,0.1-0.5,0.1c-0.2,0-0.3,0-0.5,0c0,0,0,0-0.1-0.1C27.1,7,27.2,6.9,27.3,6.8L27.3,6.8
		c0.2-0.1,0.4-0.2,0.6-0.3c0.1,0,0.2-0.1,0.3-0.1v0c-0.1,0-0.2,0.1-0.3,0.1C27.7,6.6,27.5,6.7,27.3,6.8z"/>
	<path d="M27.9,0.1c0,0.2,0.2,0.3,0.3,0.3v0C28,0.4,27.9,0.3,27.9,0.1c0,0,0-0.1,0-0.1h0C27.9,0,27.9,0.1,27.9,0.1z"/>
	<path d="M26,2.5c-0.1,0-0.2,0-0.3,0c-0.2,0-0.4,0.1-0.6,0.2c-0.3,0.1-0.5,0.2-0.8,0.2c-0.2,0-0.3,0.1-0.3,0.3v0
		c0.1,0.2,0.1,0.4,0.2,0.6c0.1,0.4,0.3,0.9,0.7,1.1c0.2,0.1,0.4,0.2,0.6,0.2l0,0c0.4,0,0.7-0.2,1-0.4c0.2-0.2,0.4-0.5,0.4-0.9
		c0.1-0.4,0-0.7-0.2-1C26.6,2.6,26.3,2.5,26,2.5z M26.5,4.7c-0.3,0.3-0.6,0.4-1,0.4c-0.2,0-0.4-0.1-0.6-0.2
		c-0.4-0.2-0.5-0.7-0.6-1.1c-0.1-0.2-0.1-0.4-0.2-0.6c0-0.2,0.1-0.3,0.3-0.3c0.3,0,0.5-0.1,0.8-0.2c0.2-0.1,0.4-0.1,0.6-0.2
		c0.1,0,0.2,0,0.3,0c0.3,0,0.5,0.1,0.7,0.3C27.1,3.3,26.9,4.3,26.5,4.7z"/>
	<path d="M11.1,8.3c0.1,0.1,0.1,0.3,0.2,0.4c0.1,0.1,0.1,0.2,0.2,0.3c0.3,0.7,0.6,1.4,1.1,2c0.2,0.2,0.4,0.4,0.6,0.6
		c0.2,0.2,0.4,0.4,0.5,0.6c0.1,0.1,0.1,0.2,0.2,0.3c0.1,0.2,0.2,0.4,0.4,0.5l0,0l0.1,0c0.8,0,1.4-0.1,2.1-0.2c0.5-0.1,0.8-0.2,1-0.3
		c0.4-0.2,0.5-0.6,0.6-1c0,0,0-0.1,0-0.1c0.2-0.6,0.4-1.1,1.1-1.5l0,0c0,0,0,0,0,0c0.1-0.1,0.3-0.1,0.4-0.2c0.2-0.1,0.5-0.2,0.7-0.4
		c0.1-0.1,0.2-0.1,0.3-0.2c0.2-0.1,0.3-0.2,0.5-0.2c0.1-0.1,0.2-0.1,0.3-0.2c0,0,0,0,0.1-0.1c0.1-0.1,0.2-0.1,0.3-0.2
		c0.2-0.1,0.4-0.1,0.7-0.1c0.2,0,0.4,0,0.6-0.1c0.2-0.1,0.3-0.1,0.4-0.3c0.3-0.5,0.2-0.9-0.1-1.3c-0.3-0.5-0.6-0.9-1-1.1
		c-0.1,0-0.2-0.1-0.2-0.1c-0.1,0-0.2-0.1-0.3-0.1c-0.1-0.1-0.2-0.1-0.3-0.2c-0.1-0.1-0.1-0.1-0.2-0.2c-0.3-0.2-0.6-0.4-1-0.6
		c-0.1,0-0.3-0.1-0.4-0.1c-0.1,0-0.2,0-0.3,0c-0.1,0-0.2,0.1-0.3,0.1c0,0-0.1,0-0.1,0.1c-0.1,0-0.1,0-0.2,0.1c-0.1,0-0.1,0-0.2,0.1
		c-0.2,0.1-0.3,0.2-0.5,0.3c-0.1,0.1-0.3,0.2-0.4,0.3c-0.7,0.4-1.3,0.6-2,0.7c-0.2,0-0.4,0-0.5,0c-0.2,0-0.5,0-0.7-0.1
		c-0.2,0-0.3-0.1-0.5-0.1c-0.3-0.1-0.6-0.2-0.9-0.2c-0.2,0-0.3,0-0.5,0.1c-0.3,0.1-0.5,0.3-0.8,0.6c-0.1,0.1-0.3,0.2-0.4,0.4
		c0,0-0.1,0.1-0.1,0.1C11.3,6.9,11.1,7,11,7.1c-0.2,0.2-0.3,0.4-0.2,0.6C10.9,7.9,11,8.1,11.1,8.3z M11,7.2c0.1-0.1,0.3-0.2,0.4-0.3
		c0,0,0.1-0.1,0.1-0.1c0.2-0.1,0.3-0.2,0.4-0.4c0.3-0.2,0.5-0.4,0.8-0.6c0.1-0.1,0.3-0.1,0.5-0.1c0.3,0,0.6,0.1,0.9,0.2
		c0.2,0,0.3,0.1,0.5,0.1c0.2,0,0.4,0.1,0.7,0.1c0.2,0,0.4,0,0.5,0c0.6-0.1,1.2-0.3,2-0.7c0.2-0.1,0.3-0.2,0.4-0.3
		c0.1-0.1,0.3-0.2,0.5-0.3c0.1,0,0.1-0.1,0.2-0.1c0.1,0,0.1,0,0.2-0.1c0,0,0.1,0,0.1-0.1c0.1-0.1,0.2-0.1,0.3-0.1c0.1,0,0.2,0,0.3,0
		c0.1,0,0.3,0,0.4,0.1c0.4,0.1,0.7,0.4,1,0.6c0.1,0.1,0.1,0.1,0.2,0.2c0.1,0.1,0.2,0.1,0.3,0.2c0.1,0.1,0.2,0.1,0.3,0.1
		c0.1,0,0.2,0.1,0.2,0.1c0.4,0.3,0.8,0.6,1,1.1c0.3,0.5,0.4,0.8,0.1,1.3c-0.1,0.1-0.2,0.2-0.4,0.2c-0.2,0.1-0.4,0.1-0.6,0.1
		c-0.2,0-0.5,0-0.7,0.1c-0.1,0-0.2,0.1-0.3,0.2c0,0,0,0-0.1,0.1c-0.1,0.1-0.2,0.1-0.3,0.2c-0.2,0.1-0.3,0.2-0.5,0.2
		c-0.1,0.1-0.2,0.1-0.3,0.2c-0.2,0.1-0.5,0.2-0.7,0.4c-0.1,0.1-0.3,0.1-0.4,0.2l0,0c0,0,0,0,0,0c-0.6,0.4-0.9,0.9-1.1,1.5
		c0,0,0,0.1,0,0.1c-0.1,0.4-0.2,0.8-0.6,1c-0.2,0.1-0.5,0.2-1,0.3c-0.7,0.1-1.4,0.2-2.1,0.2l-0.1,0c-0.2-0.1-0.3-0.3-0.4-0.5
		c-0.1-0.1-0.1-0.2-0.2-0.3c-0.1-0.2-0.3-0.4-0.5-0.6c-0.2-0.2-0.4-0.4-0.6-0.6c-0.5-0.6-0.8-1.3-1.1-2c0-0.1-0.1-0.2-0.2-0.3
		c-0.1-0.1-0.1-0.3-0.2-0.4c-0.1-0.2-0.2-0.4-0.3-0.6C10.7,7.5,10.8,7.3,11,7.2z"/>
	<path d="M12.2,9.2L12.2,9.2c0.3,1.1,0.7,1.7,1.5,2.2l0,0c0.4,0.3,0.8,0.6,1.2,0.7c0.2,0.1,0.5,0.1,0.7,0.1c0,0,0,0,0,0
		c0.4,0,0.7-0.1,1-0.2c0.7-0.3,0.9-0.9,1.2-1.5c0.4-0.9,1-2,2-2.5c0.2-0.1,0.3-0.1,0.5-0.1c0.1,0,0.1,0,0.2,0c0.3,0,0.6-0.1,0.9-0.2
		c0.1,0,0.1,0,0.2,0c0.3-0.1,0.6-0.2,0.7-0.5c0.1-0.2,0.1-0.4,0-0.5c-0.3-0.5-1.4-0.6-1.9-0.6h0c-0.2,0-0.4,0-0.6,0
		c-0.1,0-0.2,0-0.3,0c-0.2,0-0.3,0.1-0.5,0.2c-0.2,0.1-0.4,0.2-0.7,0.2c-0.2,0-0.4,0-0.6-0.1c-0.1,0-0.1,0-0.2,0
		c-0.3,0-0.6-0.1-0.9-0.1c-0.2,0-0.4,0-0.6,0c-0.2,0-0.4,0-0.6,0c-0.4,0-0.7,0-1-0.1c-0.1,0-0.2,0-0.3-0.1c-0.2,0-0.4-0.1-0.7-0.1
		c-0.1,0-0.2,0-0.4,0c-0.5,0.2-1,0.8-1.1,1.3c0,0.2,0,0.4,0,0.6C12.1,8.6,12.1,8.9,12.2,9.2z M12,7.6c0.1-0.5,0.5-1.2,1.1-1.3
		c0.1,0,0.2,0,0.4,0c0.2,0,0.5,0.1,0.7,0.1c0.1,0,0.2,0,0.3,0.1c0.3,0.1,0.6,0.1,1,0.1c0.2,0,0.4,0,0.6,0c0.2,0,0.4,0,0.6,0
		c0.3,0,0.6,0,0.9,0.1c0.1,0,0.1,0,0.2,0c0.2,0,0.4,0.1,0.6,0.1c0.3,0,0.5-0.1,0.7-0.2c0.2-0.1,0.3-0.2,0.5-0.2c0.1,0,0.2,0,0.3,0
		c0.2,0,0.4,0,0.6,0h0c0.4,0,1.5,0.2,1.9,0.6c0.1,0.2,0.1,0.3,0,0.5c-0.1,0.3-0.5,0.4-0.7,0.5c0,0-0.1,0-0.2,0
		C21.1,7.9,20.8,8,20.5,8c-0.1,0-0.1,0-0.2,0c-0.2,0-0.4,0-0.5,0.1c-1,0.4-1.6,1.6-2,2.5c-0.3,0.7-0.5,1.2-1.2,1.5
		c-0.3,0.1-0.6,0.2-1,0.2h0c-0.3,0-0.5,0-0.7-0.1c-0.4-0.1-0.8-0.4-1.2-0.7l0,0c-0.8-0.6-1.2-1.2-1.4-2.1l0-0.1
		c-0.1-0.3-0.2-0.6-0.2-1C12,8,12,7.8,12,7.6z"/>
	<path d="M27,9L27,9c0,0.1-0.1,0.1-0.1,0.1c-0.1,0.1-0.1,0.2-0.2,0.5c0,0.2,0,0.4,0,0.6c0,0.2,0,0.5,0,0.7c-0.1,0.8-0.8,1.7-1.5,2
		c-0.1,0-0.2,0.1-0.2,0.1c-0.1,0-0.1,0-0.1,0l0,0c-0.4,0-0.5-0.4-0.6-0.8c0-0.1,0-0.2-0.1-0.3c-0.1-0.3-0.2-0.6-0.4-0.7
		c-0.2-0.2-0.5-0.3-0.9-0.3c-0.2,0-0.3,0-0.5,0c-0.3,0-0.5,0.1-0.9,0.2c0,0,0,0,0,0c-0.2,0.1-0.4,0.1-0.5,0.3
		c-0.2,0.3-0.4,0.9-0.3,1.3c0.1,0.4,0.4,0.5,0.7,0.5c0.1,0,0.1,0,0.2,0c0.1,0,0.2,0.1,0.2,0.1c0.4,0.3,0.9,0.5,1.6,0.7
		c0.5,0.2,0.8,0.6,1,1.1c0.2,0.4,0.5,0.8,1,1.1c0.1,0,0.2,0,0.3,0l0,0c0.1,0,0.2,0,0.4-0.1c0.4-0.1,0.7-0.5,0.9-0.8
		c0.4-0.5,0.8-1.1,1.4-1.5c0,0,0,0,0,0v0c0,0,0,0-0.1,0c-0.5,0.4-1,1-1.4,1.5c-0.2,0.3-0.5,0.7-0.9,0.8c-0.1,0-0.2,0.1-0.4,0.1l0,0
		c-0.1,0-0.2,0-0.2,0c-0.5-0.2-0.7-0.6-1-1c-0.2-0.4-0.5-0.9-1-1.1c-0.6-0.2-1.1-0.5-1.6-0.7c-0.1,0-0.1-0.1-0.2-0.1
		c-0.1,0-0.1,0-0.2,0c-0.3-0.1-0.6-0.2-0.7-0.5c-0.1-0.4,0.1-0.9,0.3-1.3c0.1-0.2,0.3-0.2,0.5-0.3c0,0,0,0,0,0
		c0.3-0.1,0.6-0.2,0.9-0.2c0.1,0,0.3,0,0.5,0c0.8,0.1,1.1,0.4,1.3,1.1c0,0.1,0,0.2,0.1,0.3c0.1,0.4,0.2,0.8,0.6,0.8l0,0
		c0,0,0.1,0,0.2,0c0.1,0,0.2,0,0.2-0.1c0.4-0.1,0.7-0.4,1-0.8c0.3-0.4,0.5-0.8,0.5-1.2c0-0.2,0-0.5,0-0.7c0-0.2,0-0.4,0-0.6
		c0-0.2,0.1-0.3,0.2-0.5C26.9,9.1,27,9.1,27,9c0.3-0.2,0.6-0.3,0.9-0.3c0.1,0,0.2,0,0.3,0v0c-0.1,0-0.2,0-0.3,0
		C27.6,8.7,27.2,8.8,27,9z"/>
	<path d="M27.4,10c-0.1,0.2-0.1,0.4-0.1,0.6c0,0.1,0,0.2,0,0.3c0,0.4-0.1,0.7-0.2,1.1c-0.1,0.4-0.1,0.7-0.1,0.9v0l0,0
		c0,0,0.1,0.1,0.1,0.1c0,0,0,0,0,0l0,0c0.1-0.1,0.3-0.1,0.4-0.2c0.2-0.1,0.4-0.2,0.6-0.3v0c-0.2,0.1-0.4,0.2-0.6,0.3
		c-0.1,0.1-0.3,0.1-0.4,0.2c0,0,0,0,0,0c0,0-0.1,0-0.1-0.1c0-0.3,0.1-0.6,0.1-0.9c0.1-0.4,0.1-0.7,0.2-1.1c0-0.1,0-0.2,0-0.3
		C27.4,10.4,27.4,10.2,27.4,10c0.1-0.3,0.3-0.4,0.6-0.4c0,0,0.1,0,0.1,0v0c0,0-0.1,0-0.1,0C27.8,9.5,27.5,9.7,27.4,10z"/>
	<path d="M22.4,11.7c-0.2,0-0.5,0.1-0.5,0.4v0c0.1,0.3,0.4,0.6,0.8,0.6l0,0c0.1,0,0.2,0,0.2-0.1c0.1-0.1,0.1-0.1,0.2-0.3
		c0-0.1,0-0.3-0.1-0.4C22.8,11.8,22.6,11.7,22.4,11.7z M23,12.4c0,0.1-0.1,0.2-0.2,0.2c-0.1,0-0.1,0.1-0.2,0.1
		c-0.3,0-0.7-0.3-0.8-0.6c0-0.3,0.2-0.4,0.5-0.4c0.2,0,0.4,0.1,0.5,0.2C23,12.1,23.1,12.2,23,12.4z"/>
	<path d="M26.7,13.3L26.7,13.3C26.7,13.3,26.6,13.3,26.7,13.3c-0.2,0-0.3,0.1-0.4,0.1c0,0-0.1,0-0.1,0.1c0,0,0,0-0.1,0
		c-0.4,0.2-0.9,0.4-0.9,1c0.1,0.2,0.2,0.4,0.4,0.4l0,0c0,0,0,0,0.1,0c0.4-0.2,0.7-0.7,0.8-1.1l0,0C26.7,13.7,26.7,13.5,26.7,13.3
		L26.7,13.3z M26.6,13.9L26.6,13.9c-0.2,0.4-0.4,0.9-0.9,1.1c0,0,0,0-0.1,0l0,0c-0.2,0-0.4-0.2-0.4-0.4c0-0.6,0.5-0.8,0.8-1
		c0,0,0.1,0,0.1,0c0,0,0.1,0,0.1-0.1c0.1-0.1,0.2-0.1,0.3-0.1c0,0,0,0,0.1,0C26.7,13.5,26.6,13.7,26.6,13.9z"/>
	<path d="M22.1,18c-0.1-0.1-0.2-0.2-0.4-0.2c-0.3,0-0.5,0.3-0.5,0.6c0,0.2,0,0.5,0,0.7c0,0.2,0.1,0.3,0.3,0.4c0,0,0.1,0,0.1,0
		c0.1,0,0.2,0,0.3,0l0,0c0.2,0,0.4-0.1,0.4-0.2c0.1-0.2,0.1-0.5,0.1-0.7C22.4,18.4,22.2,18.1,22.1,18z M22.3,19.4
		c-0.1,0.1-0.2,0.2-0.4,0.2c-0.1,0-0.2,0-0.3,0c-0.1,0-0.1,0-0.1,0c-0.2-0.1-0.3-0.2-0.3-0.4c0-0.2,0-0.5,0-0.7
		c0-0.3,0.2-0.6,0.5-0.6c0.1,0,0.2,0.1,0.4,0.2c0.2,0.2,0.3,0.4,0.3,0.7C22.4,18.9,22.4,19.2,22.3,19.4z"/>
	<path d="M1.4,22.3c0.1,0,0.2,0,0.3-0.1c0.1,0,0.2-0.1,0.4-0.1c0.1,0,0.3,0,0.4,0c0.3,0,0.7,0,0.9-0.2c0.4-0.2,0.4-0.7,0.3-1
		c-0.2-0.7-0.5-1.1-0.8-1.4c-0.1-0.1-0.3-0.2-0.4-0.4c-0.2-0.2-0.5-0.5-0.8-0.6c-0.3-0.1-0.5-0.2-0.8-0.3c-0.2,0-0.3-0.1-0.5-0.1
		c-0.1,0-0.2-0.1-0.2-0.1c0,0-0.1,0-0.1-0.1v0c0,0,0.1,0,0.1,0.1c0.1,0,0.2,0.1,0.3,0.1c0.2,0.1,0.3,0.1,0.5,0.1
		c0.3,0.1,0.6,0.1,0.8,0.3c0.3,0.1,0.6,0.4,0.8,0.6c0.1,0.1,0.2,0.2,0.4,0.4c0.3,0.3,0.6,0.7,0.8,1.4c0.1,0.4,0.1,0.8-0.3,1
		c-0.3,0.1-0.6,0.2-0.9,0.2c-0.1,0-0.3,0-0.4,0c-0.2,0-0.3,0.1-0.4,0.1C1.6,22.3,1.5,22.3,1.4,22.3c-0.2,0-0.5,0.1-0.7,0.1
		c-0.2,0-0.5,0.1-0.7,0.1v0c0.2,0,0.4-0.1,0.7-0.1C0.9,22.4,1.1,22.4,1.4,22.3z"/>
	<path d="M1.1,21.5c0.3-0.1,0.6-0.2,0.9-0.3c0.3-0.1,0.6-0.3,0.7-0.6c0.2-0.4,0-0.8-0.4-1.1c-0.1-0.1-0.1-0.1-0.2-0.2
		c-0.3-0.2-0.6-0.4-1-0.5c-0.3,0-0.6-0.1-1-0.1v0c0.4,0,0.8,0,1,0.1c0.4,0.1,0.7,0.3,1,0.5c0.1,0.1,0.1,0.1,0.2,0.2
		c0.4,0.3,0.6,0.7,0.4,1.1c-0.1,0.3-0.4,0.4-0.7,0.6C1.7,21.3,1.4,21.4,1.1,21.5c-0.2,0-0.3,0.1-0.5,0.1c-0.2,0.1-0.4,0.1-0.6,0.1v0
		c0.2,0,0.4-0.1,0.6-0.1C0.8,21.6,0.9,21.6,1.1,21.5z"/>
	<path d="M1,23.1c0.3,0,0.6,0,0.9,0c0.3,0,0.5-0.1,0.8-0.1c0.1,0,0.1,0,0.2,0c0,0,0.1,0,0.1,0c0.5-0.1,1-0.2,1.4-0.5
		c0.5-0.3,0.5-1,0.3-1.4c-0.2-0.4-0.5-0.7-0.8-1.1c-0.3-0.3-0.5-0.5-0.7-0.9C3,18.9,3,18.8,2.9,18.7C2.7,18.3,2.5,18.1,2,18
		c-0.9-0.2-1.7-0.4-1.9-1.3c-0.1-0.3,0-0.6,0.1-0.8c0.1-0.2,0.1-0.4,0.1-0.6l0,0l0,0c0,0,0,0-0.1-0.1c0,0-0.1-0.1-0.1-0.1l0,0h0
		c-0.1,0-0.1,0-0.2,0v0c0,0,0.1,0,0.2,0c0,0,0.1,0.1,0.1,0.1c0,0,0,0,0.1,0.1c0,0.2,0,0.4-0.1,0.6c-0.1,0.2-0.1,0.5-0.1,0.8
		C0.3,17.6,1.1,17.8,2,18c0.5,0.1,0.6,0.4,0.9,0.7C3,18.8,3,18.9,3.1,19c0.2,0.3,0.5,0.6,0.7,0.9c0.3,0.3,0.6,0.6,0.8,1.1
		c0.2,0.5,0.1,1.1-0.3,1.4C4,22.6,3.5,22.7,3,22.8c0,0-0.1,0-0.1,0c-0.1,0-0.1,0-0.2,0C2.4,23,2.2,23,1.9,23.1
		C1.6,23.1,1.3,23.1,1,23.1c-0.3,0-0.7,0-1,0v0C0.3,23.1,0.6,23.1,1,23.1z"/>
	<path d="M10.1,20.1c0,0,0.1,0,0.1,0.1c0.2,0.1,0.3,0.3,0.4,0.4c0.2,0.3,0.3,0.5,0.4,0.9c0.1,0.5,0.4,0.7,0.9,0.8
		c0.3,0.1,0.6,0.1,0.9,0.1c0.2,0,0.3,0,0.4,0c0.5-0.1,0.9-0.4,0.9-0.9c0-0.1,0-0.2,0-0.3c0.1-0.4,0.1-0.8-0.1-1.2
		c-0.2-0.3-0.5-0.3-0.9-0.3c-0.1,0-0.1,0-0.2,0c-0.1,0-0.1,0-0.2,0c-0.1,0-0.2,0-0.3,0c-0.3,0-0.6-0.1-0.8-0.2
		c-0.4-0.1-0.9-0.2-1.3-0.2c-0.1,0-0.2,0-0.3,0c-0.1,0-0.2,0.1-0.3,0.2c-0.1,0.1-0.1,0.3,0,0.4C10,20.1,10,20.1,10.1,20.1z
		 M9.9,19.6c0.1-0.1,0.1-0.2,0.2-0.2c0.1,0,0.2,0,0.3,0c0.4,0,0.8,0.1,1.3,0.2c0.3,0.1,0.5,0.1,0.8,0.2c0.1,0,0.2,0,0.3,0
		c0.1,0,0.1,0,0.2,0c0.1,0,0.1,0,0.2,0c0.3,0,0.7,0,0.9,0.3c0.2,0.4,0.2,0.8,0.1,1.1c0,0.1,0,0.2,0,0.3c-0.1,0.5-0.4,0.8-0.9,0.9
		c-0.1,0-0.3,0-0.4,0c-0.3,0-0.6-0.1-0.9-0.1c-0.5-0.2-0.8-0.4-0.9-0.8c-0.1-0.3-0.2-0.6-0.4-0.9c-0.1-0.1-0.2-0.3-0.4-0.4
		c0,0-0.1,0-0.1-0.1c-0.1,0-0.1-0.1-0.2-0.1C9.9,19.9,9.9,19.8,9.9,19.6z"/>
	<path d="M12.5,21.9c0.2,0,0.3,0,0.4-0.1c0,0,0,0,0.1,0c0.1-0.1,0.2-0.2,0.2-0.3c0-0.1,0-0.2-0.1-0.3c-0.1-0.1-0.2-0.1-0.4-0.1
		c-0.1,0-0.5,0.2-0.5,0.4c0,0.1,0,0.1,0,0.2C12.2,21.9,12.4,21.9,12.5,21.9z M12.2,21.6c0.1-0.2,0.4-0.4,0.5-0.4c0,0,0.1,0,0.1,0
		c0.1,0,0.2,0,0.3,0.1c0.1,0.1,0.1,0.2,0.1,0.3c0,0.1-0.1,0.2-0.2,0.3c0,0,0,0-0.1,0c-0.1,0-0.2,0.1-0.4,0.1c-0.2,0-0.3,0-0.4-0.1
		C12.1,21.7,12.1,21.6,12.2,21.6z"/>
	<path d="M16.6,26.8C16.6,26.8,16.6,26.8,16.6,26.8c0-0.1,0-0.2,0-0.2c0-0.2-0.1-0.5-0.2-0.7c-0.1-0.3-0.2-0.6-0.2-0.9
		c0-0.1,0-0.2,0-0.4c0-0.4-0.1-0.8-0.4-1c-0.1-0.1-0.3-0.1-0.6-0.1c-0.2,0-0.3,0-0.5,0c-0.1,0-0.1,0-0.2,0c-0.5,0-1.7,0.2-2.1,0.5
		c-0.5,0.4-0.6,1.1-0.6,1.8c0.1,0.8,0.6,1.3,1.2,1.7h0c-0.6-0.5-1.2-0.9-1.2-1.7c0-0.6,0.1-1.3,0.6-1.8c0.4-0.3,1.5-0.4,2.1-0.5
		c0.1,0,0.1,0,0.2,0c0.2,0,0.3,0,0.5,0c0.3,0,0.4,0,0.6,0.1c0.3,0.2,0.3,0.6,0.4,1c0,0.1,0,0.2,0,0.4c0,0.3,0.1,0.6,0.2,0.9
		c0.1,0.3,0.2,0.5,0.2,0.7C16.6,26.7,16.6,26.7,16.6,26.8C16.5,26.8,16.5,26.8,16.6,26.8c0,0.2,0,0.5-0.1,0.7h0
		C16.6,27.3,16.6,27,16.6,26.8z"/>
	<path d="M1.9,26.9c0-0.2,0-0.4,0-0.6c0-0.3,0-0.5,0-0.8c-0.1-0.5-0.8-0.9-1.3-1.1c-0.2-0.1-0.3-0.1-0.5-0.1v0c0.2,0,0.3,0,0.5,0.1
		c0.6,0.2,1.2,0.5,1.3,1.1c0,0.2,0,0.5,0,0.7C1.8,26.5,1.8,26.7,1.9,26.9c0,0.2,0,0.4,0,0.6h0C1.9,27.3,1.9,27.1,1.9,26.9z"/>
	<path d="M15.9,26.7c0-0.1-0.1-0.3-0.1-0.4c-0.1-0.2-0.1-0.5-0.2-0.8c0-0.1,0-0.1,0-0.2c-0.1-0.5-0.1-0.8-0.4-1.1
		c-0.2-0.2-0.6-0.3-1-0.3c-0.5,0-1,0.1-1.3,0.4c-0.5,0.4-0.5,1-0.4,1.5c0.1,0.5,0.5,0.8,1,1.1c0.2,0.2,0.5,0.3,0.7,0.5c0,0,0,0,0,0
		h0c0,0,0,0,0,0c-0.2-0.2-0.5-0.4-0.7-0.5c-0.5-0.3-0.8-0.6-1-1.1c-0.1-0.5-0.1-1.1,0.4-1.5c0.3-0.2,0.8-0.4,1.3-0.4
		c0.4,0,0.8,0.1,1,0.3c0.3,0.2,0.4,0.6,0.4,1.1c0,0.1,0,0.1,0,0.2c0,0.3,0.1,0.5,0.2,0.8C15.8,26.4,15.8,26.6,15.9,26.7
		c0,0.3,0,0.6-0.1,0.8h0C15.9,27.3,15.9,27,15.9,26.7z"/>
	<path d="M6.4,25.9c-0.1-0.2-0.1-0.6-0.1-0.8c0,0,0-0.1,0-0.2c0.1-0.2,0.1-0.5-0.1-0.6l0,0h0c-0.5-0.1-0.8,0.3-1,0.7
		c-0.1,0.1-0.1,0.2-0.2,0.3c-0.2,0.2-0.5,0.4-0.9,0.6c-0.5,0.3-1,0.6-1.3,1.2c-0.1,0.2-0.1,0.4-0.2,0.5h0c0.1-0.2,0.1-0.4,0.2-0.5
		c0.3-0.6,0.8-0.9,1.3-1.2c0.3-0.2,0.6-0.4,0.9-0.6c0.1-0.1,0.1-0.2,0.2-0.3c0.3-0.3,0.5-0.7,1-0.7c0.2,0.2,0.2,0.4,0.1,0.6
		c0,0.1,0,0.1,0,0.2C6.3,25.4,6.3,25.7,6.4,25.9c0.1,0.3,0.2,0.6,0.3,0.9c0.1,0.2,0.2,0.5,0.3,0.7h0c-0.1-0.2-0.2-0.5-0.3-0.7
		C6.6,26.5,6.5,26.2,6.4,25.9z"/>
	<path d="M13.9,24.4c-0.3,0-0.6,0.1-0.8,0.2c-0.2,0.2-0.4,0.4-0.4,1c0.2,0.7,0.9,1.1,1.5,1.1l0,0c0.1,0,0.2,0,0.2,0h0l0,0
		c0.1-0.1,0.2-0.2,0.2-0.3l0,0c0.2-0.7,0.2-1.3,0-1.6C14.6,24.5,14.2,24.4,13.9,24.4z M14.7,26.3c-0.1,0.1-0.2,0.2-0.2,0.3
		c-0.1,0-0.2,0-0.2,0l0,0c-0.6,0-1.4-0.4-1.5-1.1c0-0.5,0.1-0.8,0.4-0.9c0.2-0.1,0.5-0.2,0.8-0.2c0.4,0,0.7,0.1,0.9,0.4
		C15,25,15,25.6,14.7,26.3z"/>
	<path d="M10.7,26.3c-0.1-0.5-0.2-1-0.5-1.4c-0.2-0.2-0.4-0.3-0.6-0.2c-0.5,0.1-1.1,0.5-1.4,0.8c-0.4,0.4-0.5,0.8-0.4,1.4
		c0,0.2,0.1,0.4,0.1,0.6h0c-0.1-0.2-0.1-0.4-0.1-0.6c-0.1-0.6,0.1-1,0.4-1.4c0.3-0.2,0.9-0.7,1.4-0.8c0,0,0.1,0,0.1,0
		c0.2,0,0.3,0.1,0.5,0.2C10.4,25.3,10.5,25.8,10.7,26.3c0.1,0.4,0.2,0.9,0.4,1.2c0,0,0,0,0,0h0c0,0,0,0,0,0
		C10.8,27.2,10.7,26.7,10.7,26.3z"/>
	<path d="M13.9,25.2L13.9,25.2c-0.1-0.1-0.1-0.1-0.2-0.1c0,0-0.1,0-0.1,0l0,0c0,0-0.1,0.1-0.1,0.2c0,0,0,0.1,0,0.1c0,0,0,0,0.1,0
		l0,0h0c0,0,0.1,0,0.1,0l0,0C13.8,25.5,13.9,25.4,13.9,25.2L13.9,25.2C13.9,25.3,13.9,25.3,13.9,25.2L13.9,25.2z M13.9,25.3
		c0,0.1-0.1,0.1-0.2,0.1l0,0c0,0,0,0-0.1,0c0,0,0,0,0,0c0,0,0-0.1,0-0.1c0-0.1,0-0.1,0.1-0.1c0,0,0,0,0.1,0
		C13.8,25.1,13.9,25.2,13.9,25.3C13.9,25.3,13.9,25.3,13.9,25.3z"/>
	<path d="M0.6,25.8c-0.2-0.2-0.3-0.3-0.6-0.3v0C0.3,25.6,0.5,25.6,0.6,25.8c0.3,0.4,0.4,1,0.5,1.5c0,0.1,0,0.2,0,0.2h0
		c0-0.1,0-0.2,0-0.2C1.1,26.8,0.9,26.2,0.6,25.8z"/>
	<path d="M9.1,26C9,26,9,26,9.1,26c-0.2,0-0.4,0.1-0.5,0.2c-0.2,0.2-0.2,0.5-0.2,0.9c0,0.1,0,0.3,0.1,0.4h0c0-0.1-0.1-0.3-0.1-0.4
		c0-0.4,0-0.7,0.2-0.9C8.7,26.1,8.8,26,9.1,26C9,26,9,26,9.1,26c0.5,0,0.7,0.6,0.9,1.2c0,0.1,0.1,0.2,0.1,0.3h0
		c0-0.1-0.1-0.2-0.1-0.3C9.8,26.6,9.6,26,9.1,26z"/>
	<path d="M5.5,26.5c-0.1,0-0.2,0-0.3,0c-0.4,0-0.7,0.1-1,0.3c-0.3,0.2-0.5,0.4-0.7,0.7h0c0.3-0.6,1-1,1.7-1
		C5.3,26.5,5.4,26.5,5.5,26.5c0.4,0.1,0.8,0.4,1,0.9c0,0,0,0.1,0.1,0.1h0c0,0,0-0.1-0.1-0.1C6.2,26.9,5.8,26.6,5.5,26.5z"/>
	<path d="M0,27.1C0,27.1,0,27.1,0,27.1L0,27.1C0,27.1,0,27.1,0,27.1c0.1,0,0.2,0.1,0.2,0.2c0,0.1,0,0.2,0,0.3h0c0-0.1,0-0.2,0-0.3
		C0.2,27.2,0.1,27.1,0,27.1z"/>
	<path d="M4.4,27.5L4.4,27.5c0.2-0.1,0.5-0.2,0.7-0.2c0.3,0,0.5,0.1,0.7,0.2h0c-0.2-0.2-0.4-0.2-0.7-0.2C4.9,27.3,4.6,27.4,4.4,27.5
		z"/>
	<path d="M23.4,26.3c-0.2-0.3-0.3-0.6-0.4-0.9c-0.1-0.2-0.1-0.3-0.2-0.5c-0.3-0.8-0.6-1.8-1.6-1.8c0,0,0,0,0,0
		c-0.4,0-0.7,0.1-0.9,0.2c-0.1,0-0.1,0.1-0.2,0.1c-0.2,0.1-0.3,0.2-0.5,0.2c-0.5,0.3-1,0.4-1.5,0.5l0,0c0,0-0.1,0-0.1,0
		c-0.3,0.1-0.8,0.2-0.9,0.6c-0.1,0.3,0,0.7,0.1,1.1c0,0.1,0.1,0.3,0.1,0.4c0.1,0.4,0.1,0.8,0,1.2c0,0,0,0.1,0,0.1h0c0,0,0-0.1,0-0.1
		c0.1-0.4,0.1-0.8,0-1.2c0-0.1-0.1-0.3-0.1-0.4c-0.1-0.4-0.2-0.8-0.1-1.1c0.1-0.4,0.6-0.5,0.9-0.5c0,0,0.1,0,0.1,0l0,0
		c0.5-0.1,1-0.2,1.5-0.5c0.2-0.1,0.3-0.2,0.5-0.2c0.1,0,0.1-0.1,0.2-0.1c0.2-0.1,0.6-0.2,0.9-0.2c0,0,0,0,0,0c1,0,1.3,0.9,1.6,1.8
		c0.1,0.2,0.1,0.4,0.2,0.5C23,25.7,23.2,26,23.4,26.3c0.1,0.2,0.2,0.5,0.4,0.7c0.1,0.2,0.2,0.4,0.3,0.6h0c-0.1-0.1-0.2-0.3-0.3-0.6
		C23.6,26.7,23.5,26.5,23.4,26.3z"/>
	<path d="M27.8,23.8c-0.8,0.3-1.4,0.9-1.6,1.7c-0.1,0.2-0.1,0.5-0.1,0.8c-0.1,0.3-0.1,0.7-0.2,1c0,0.1-0.1,0.2-0.2,0.3h0
		c0.1-0.1,0.1-0.2,0.2-0.3c0.1-0.3,0.1-0.6,0.2-1c0-0.3,0.1-0.6,0.1-0.8C26.4,24.7,27,24.1,27.8,23.8c0.1,0,0.2,0,0.3-0.1
		c0,0,0,0,0.1,0v0c0,0,0,0-0.1,0C28,23.7,27.9,23.8,27.8,23.8z"/>
	<path d="M27,17.8c-0.3,0.1-0.5,0.2-0.8,0.3c-0.2,0.1-0.5,0.3-0.8,0.3c-0.7,0.1-0.9-0.5-1.2-1c0-0.1-0.1-0.1-0.1-0.2
		c-0.1-0.3-0.3-0.5-0.4-0.8c-0.3-0.4-0.7-0.8-1.1-1.1c-0.4-0.2-0.7-0.4-1-0.4c-0.5-0.1-0.8,0.1-1.2,0.3c-0.1,0-0.2,0.1-0.3,0.1
		c-0.3,0.1-0.6,0.2-0.8,0.5c-0.2,0.2-0.3,0.4-0.4,0.7l0,0.1c-0.2,0.4-0.4,0.9-0.5,1.3c0,0.1-0.1,0.2-0.1,0.3
		c-0.1,0.3-0.2,0.6-0.3,0.8c-0.1,0.2-0.2,0.4-0.4,0.6c-0.1,0.1-0.2,0.2-0.2,0.3c-0.2,0.3-0.4,0.5-0.7,0.7c-0.1,0.1-0.2,0.2-0.3,0.2
		c-0.1,0-0.1,0.1-0.2,0.1c-0.3,0.2-0.6,0.5-0.7,0.8c0,0,0,0.1,0,0.1c-0.1,0.4-0.2,0.7-0.5,0.9c-0.4,0.2-0.8,0.3-1.2,0.4
		c-0.2,0-0.4,0.1-0.5,0.1c-0.3,0-0.6,0.1-0.9,0.2c-0.6,0.2-1,0.6-1.2,1.3c-0.1,0.7,0,1.5,0.1,1.9c0.1,0.3,0.3,0.6,0.6,0.8h0
		c-0.3-0.2-0.5-0.5-0.6-0.8c-0.1-0.3-0.3-1.2-0.1-1.9c0.1-0.7,0.5-1.1,1.2-1.3c0.3-0.1,0.6-0.1,0.9-0.2c0.2,0,0.4,0,0.5-0.1
		c0.4-0.1,0.8-0.1,1.2-0.4c0.4-0.2,0.5-0.6,0.5-0.9c0,0,0-0.1,0-0.1c0.1-0.3,0.4-0.6,0.7-0.8c0.1-0.1,0.1-0.1,0.2-0.1
		c0.1-0.1,0.2-0.2,0.3-0.2c0.3-0.2,0.5-0.5,0.7-0.7c0.1-0.1,0.1-0.2,0.2-0.3c0.1-0.2,0.3-0.4,0.4-0.6c0.1-0.3,0.2-0.6,0.3-0.8
		c0-0.1,0.1-0.2,0.1-0.3c0.2-0.4,0.3-0.9,0.5-1.3l0-0.1c0.1-0.2,0.2-0.5,0.4-0.7c0.2-0.3,0.5-0.4,0.8-0.5c0.1,0,0.2-0.1,0.3-0.1
		c0.4-0.2,0.7-0.3,1.2-0.3c0.3,0,0.6,0.2,1,0.4c0.4,0.3,0.8,0.6,1.1,1.1c0.2,0.2,0.3,0.5,0.4,0.7c0,0.1,0.1,0.1,0.1,0.2
		c0.1,0.3,0.2,0.5,0.4,0.7c0.2,0.2,0.5,0.3,0.8,0.2c0.3-0.1,0.5-0.2,0.8-0.3C26.5,18,26.7,17.9,27,17.8c0.4-0.1,0.8,0,1.2,0.1v0
		C27.8,17.9,27.4,17.7,27,17.8z"/>
	<path d="M26.3,22.8c-0.3,0.3-0.6,0.6-1,0.7c-0.5,0.2-0.9-0.2-1.3-0.6c0,0,0,0-0.1-0.1c-0.2-0.2-0.4-0.3-0.7-0.5
		c-0.2-0.1-0.3-0.2-0.5-0.3c-0.1-0.1-0.2-0.2-0.4-0.3c-0.1-0.1-0.2-0.1-0.2-0.2c-0.1-0.1-0.2-0.2-0.3-0.4c0-0.1-0.1-0.2-0.2-0.2
		c-0.2-0.2-0.4-0.3-0.6-0.5c-0.4-0.3-0.7-0.5-0.8-1c0-0.3,0.1-0.7,0.2-1c0.1-0.3,0.4-0.7,0.7-1c0.2-0.2,0.4-0.3,0.6-0.3
		c0.4,0,0.7,0.4,0.9,0.7c0.1,0.2,0.2,0.4,0.2,0.6c0,0.1,0.1,0.2,0.1,0.4c0.1,0.1,0.1,0.2,0.2,0.4c0.1,0.2,0.2,0.4,0.2,0.6
		c0.1,0.3,0.1,0.8,0,1.1c-0.2,0.3-0.1,0.7,0.1,1c0.1,0.2,0.5,0.4,0.8,0.5c0.1,0,0.1,0.1,0.2,0.1c0,0,0.1,0,0.1,0
		c0.1,0,0.2,0.1,0.3,0.1c0.4,0.1,0.8-0.1,0.9-0.7c0.2-0.6,0.1-1.1-0.4-1.4c-0.1-0.1-0.3-0.2-0.4-0.3c-0.1,0-0.1-0.1-0.2-0.1
		c0,0,0,0-0.1,0c-0.2-0.1-0.4-0.3-0.6-0.4c-0.2-0.3-0.4-0.5-0.5-0.8c-0.1-0.1-0.1-0.3-0.2-0.5c0-0.1-0.1-0.2-0.1-0.4
		c-0.1-0.3-0.3-0.5-0.4-0.7c-0.2-0.3-0.6-0.7-1-0.8c-0.6-0.2-1.4,0.4-1.8,0.8c-0.2,0.3-0.4,0.6-0.5,0.8c0,0.1-0.1,0.2-0.1,0.2
		c-0.2,0.4-0.3,0.8-0.6,1.2c-0.1,0.1-0.2,0.2-0.2,0.4c0,0.1-0.1,0.2-0.2,0.3c-0.1,0.2-0.3,0.3-0.6,0.5c-0.1,0-0.2,0.1-0.3,0.1
		c-0.3,0.1-0.6,0.3-0.8,0.5c-0.1,0.1-0.2,0.3-0.2,0.4c0.1,0.3,0.3,0.4,0.6,0.5c0.5,0.2,1.1,0.1,1.6,0.1l0.1,0c0,0,0.1,0,0.1,0
		c0.2,0,0.4,0,0.7-0.2c0,0,0.1,0,0.1-0.1c0.3-0.2,0.6-0.4,1-0.4c0.2-0.1,0.6,0,0.8,0.1c0.1,0.1,0.2,0.2,0.2,0.3
		c0,0.1,0.1,0.1,0.1,0.2c0.2,0.2,0.4,0.4,0.7,0.6c0.2,0.2,0.5,0.4,0.7,0.6c0.1,0.1,0.2,0.3,0.3,0.5c0.1,0.2,0.2,0.3,0.3,0.5
		c0.2,0.3,0.5,0.4,0.8,0.3c0.3-0.1,0.6-0.3,0.9-0.5c0,0,0.1-0.1,0.1-0.1c0.2-0.1,0.3-0.2,0.5-0.4c0.4-0.3,0.8-0.6,1.2-0.8
		c0.2-0.1,0.4-0.1,0.6-0.2v0c-0.2,0-0.4,0.1-0.6,0.2c-0.4,0.2-0.8,0.5-1.2,0.8c-0.1,0.1-0.3,0.2-0.5,0.4c0,0-0.1,0.1-0.1,0.1
		c-0.3,0.2-0.6,0.5-0.9,0.5c-0.3,0.1-0.6,0-0.8-0.3c-0.1-0.1-0.2-0.3-0.3-0.5c-0.1-0.2-0.2-0.3-0.3-0.5c-0.2-0.2-0.4-0.4-0.7-0.6
		c-0.2-0.2-0.5-0.4-0.7-0.6c0-0.1-0.1-0.1-0.1-0.2c0-0.1-0.1-0.2-0.2-0.3c-0.2-0.1-0.6-0.1-0.8-0.1c-0.4,0.1-0.7,0.2-1,0.4
		c0,0-0.1,0-0.1,0.1c-0.2,0.1-0.4,0.1-0.7,0.2c0,0-0.1,0-0.1,0l-0.1,0c-0.5,0.1-1.1,0.1-1.6-0.1c-0.3-0.1-0.5-0.3-0.6-0.5
		c0-0.1,0-0.3,0.2-0.4c0.2-0.2,0.5-0.4,0.8-0.5c0.1,0,0.2-0.1,0.3-0.1c0.2-0.1,0.4-0.2,0.6-0.5c0.1-0.1,0.1-0.2,0.2-0.3
		c0.1-0.1,0.1-0.2,0.2-0.4c0.3-0.4,0.4-0.7,0.6-1.2c0-0.1,0.1-0.1,0.1-0.2c0.1-0.3,0.3-0.6,0.5-0.8c0.4-0.4,1.2-1,1.8-0.8
		c0.4,0.1,0.8,0.5,1,0.8c0.1,0.2,0.3,0.4,0.4,0.7c0,0.1,0.1,0.2,0.1,0.3c0.1,0.2,0.1,0.3,0.2,0.5c0.1,0.3,0.3,0.6,0.5,0.8
		c0.1,0.2,0.4,0.3,0.6,0.4c0,0,0,0,0.1,0c0.1,0,0.1,0.1,0.2,0.1c0.1,0.1,0.3,0.2,0.4,0.3c0.4,0.4,0.6,0.9,0.4,1.4
		c-0.2,0.5-0.5,0.7-0.9,0.6c-0.1,0-0.2-0.1-0.3-0.1c0,0-0.1,0-0.1,0c-0.1,0-0.1,0-0.2-0.1c-0.3-0.1-0.6-0.3-0.8-0.5
		c-0.2-0.2-0.2-0.7-0.1-1c0.2-0.3,0.1-0.8,0-1.1c-0.1-0.2-0.2-0.4-0.2-0.6c-0.1-0.1-0.1-0.2-0.2-0.4c-0.1-0.1-0.1-0.2-0.1-0.4
		c-0.1-0.2-0.1-0.4-0.2-0.6c-0.2-0.3-0.5-0.7-0.9-0.7c-0.2,0-0.4,0.1-0.6,0.3c-0.3,0.3-0.5,0.7-0.7,1c-0.1,0.4-0.2,0.7-0.2,1
		c0,0.5,0.4,0.8,0.8,1c0.2,0.1,0.4,0.3,0.6,0.5c0.1,0.1,0.1,0.1,0.2,0.2c0.1,0.1,0.2,0.3,0.3,0.4c0.1,0.1,0.2,0.1,0.2,0.2
		c0.1,0.1,0.2,0.2,0.4,0.3c0.2,0.1,0.3,0.2,0.5,0.3c0.2,0.1,0.5,0.3,0.7,0.5c0,0,0,0,0.1,0.1c0.4,0.4,0.8,0.8,1.3,0.6
		C25.7,23.4,26,23.1,26.3,22.8c0.3-0.3,0.6-0.6,1-0.7c0.3-0.1,0.6-0.2,0.8-0.2v0c-0.3,0.1-0.6,0.1-0.8,0.2
		C26.9,22.2,26.6,22.5,26.3,22.8z"/>
	<path d="M26.8,18.9c-0.2,0-0.4,0.2-0.7,0.3c-0.4,0.2-0.8,0.4-1.1,0.3c-0.7-0.2-0.9-0.9-1.1-1.5c0-0.1-0.1-0.2-0.1-0.4
		c-0.1-0.3-0.2-0.5-0.4-0.7c-0.2-0.3-0.5-0.5-0.8-0.7c0,0-0.1-0.1-0.1-0.1c-0.3-0.2-0.6-0.4-1-0.3c-0.1,0-0.2,0.1-0.4,0.1
		c-0.1,0-0.1,0.1-0.2,0.1c-0.1,0-0.1,0-0.2,0.1c-0.4,0.1-0.8,0.3-1.1,0.6c-0.1,0.1-0.2,0.2-0.2,0.3c0,0.1-0.1,0.1-0.1,0.2
		c-0.1,0.2-0.3,0.5-0.4,0.7c-0.1,0.3-0.2,0.6-0.2,0.9c-0.1,0.3-0.1,0.6-0.3,0.9c-0.1,0.3-0.5,0.5-0.8,0.7c-0.1,0.1-0.2,0.1-0.2,0.1
		c-0.2,0.1-0.4,0.3-0.5,0.5c-0.1,0.1-0.2,0.2-0.3,0.3c-0.3,0.2-0.4,0.6-0.3,1.1c0.1,0.7,0.4,0.9,1,1c0.5,0.1,1,0.1,1.7-0.1
		c0.4-0.1,0.7-0.3,1.1-0.5c0.1-0.1,0.2-0.2,0.4-0.2c0.5-0.3,1.1-0.2,1.5,0.2c0.1,0,0.1,0.1,0.2,0.1c0.4,0.3,0.7,0.6,0.9,1
		c0.1,0.2,0.1,0.4,0.2,0.6c0,0.2,0.1,0.4,0.2,0.6c0.1,0.3,0.3,0.6,0.6,0.8c0.2,0.2,0.5,0.4,0.9,0.3c0.3-0.1,0.5-0.4,0.7-0.8
		c0.1-0.2,0.3-0.5,0.4-0.7c0.2-0.3,0.5-0.5,0.7-0.7l0,0c0.4-0.3,0.8-0.7,1.4-0.8c0,0,0.1,0,0.1,0v0c0,0-0.1,0-0.1,0
		c-0.5,0.1-1,0.4-1.4,0.8l0,0c-0.2,0.2-0.5,0.4-0.7,0.7c-0.2,0.2-0.3,0.5-0.4,0.7c-0.2,0.4-0.4,0.7-0.7,0.8
		c-0.3,0.1-0.7-0.1-0.9-0.3c-0.2-0.2-0.5-0.5-0.6-0.8c-0.1-0.2-0.1-0.4-0.2-0.6c-0.1-0.2-0.1-0.4-0.2-0.6c-0.2-0.4-0.5-0.7-0.9-1
		c-0.1,0-0.1-0.1-0.2-0.1c-0.5-0.4-1.1-0.5-1.6-0.2c-0.1,0.1-0.2,0.2-0.4,0.2c-0.3,0.2-0.7,0.5-1.1,0.5c-0.7,0.1-1.2,0.1-1.7,0.1
		c-0.6-0.1-0.9-0.2-1-0.9c-0.1-0.4,0-0.8,0.3-1c0.1-0.1,0.2-0.2,0.4-0.3c0.2-0.2,0.3-0.3,0.5-0.5c0.1,0,0.1-0.1,0.2-0.1
		c0.3-0.2,0.6-0.4,0.8-0.7c0.1-0.3,0.2-0.6,0.3-0.9c0.1-0.3,0.1-0.6,0.2-0.9c0.1-0.3,0.2-0.5,0.4-0.7c0-0.1,0.1-0.1,0.1-0.2
		c0.1-0.1,0.1-0.2,0.2-0.3c0.3-0.3,0.7-0.5,1.1-0.6c0.1,0,0.1,0,0.2-0.1c0.1,0,0.1-0.1,0.2-0.1c0.1-0.1,0.2-0.1,0.4-0.1
		c0.4-0.1,0.7,0.1,1,0.3c0,0,0.1,0.1,0.1,0.1c0.3,0.2,0.6,0.4,0.8,0.7c0.1,0.2,0.3,0.4,0.4,0.7c0,0.1,0.1,0.2,0.1,0.4
		c0.2,0.6,0.5,1.3,1.1,1.5c0.4,0.1,0.8-0.1,1.1-0.3C26.4,19,26.6,18.9,26.8,18.9c0.3-0.1,0.8-0.1,1.4-0.1v0
		C27.6,18.8,27.1,18.8,26.8,18.9z"/>
	<path d="M26.5,8.4c-0.4,0.2-0.6,0.6-0.6,1c0,0.2,0,0.4,0,0.5c0,0.2,0,0.4,0,0.6c0,0.2-0.1,0.4-0.3,0.5c-0.1,0.1-0.2,0.1-0.3,0
		c-0.4-0.4-0.7-0.7-1.2-0.9c-0.1-0.1-0.3-0.1-0.4-0.2c-0.1,0-0.2-0.1-0.2-0.1c-0.5-0.2-1-0.3-1.9-0.3c-0.4,0-0.7,0.1-1,0.4
		c-0.2,0.2-0.3,0.4-0.4,0.6c-0.1,0.2-0.2,0.3-0.3,0.5c-0.1,0.1-0.1,0.1-0.2,0.2c-0.1,0.1-0.2,0.2-0.3,0.3c-0.2,0.2-0.2,0.6-0.1,0.9
		c0.1,0.4,0.3,0.7,0.5,0.9c0.1,0.1,0.1,0.1,0.2,0.2c0.2,0.2,0.3,0.4,0.5,0.6c0.2,0.1,0.5,0.1,0.8,0.1c0.1,0,0.2,0,0.3-0.1
		c0.1,0,0.3-0.1,0.4,0c0.5,0.1,1,0.4,1.4,0.7c0.2,0.2,0.4,0.3,0.5,0.5c0.1,0.1,0.2,0.3,0.3,0.5c0.2,0.3,0.4,0.5,0.6,0.8
		c0.2,0.3,0.5,0.5,1,0.3c0.3-0.1,0.5-0.2,0.7-0.4c0.3-0.2,0.6-0.5,0.8-0.8c0.2-0.3,0.5-0.5,0.7-0.7c0.1,0,0.1-0.1,0.3-0.1v0
		c-0.1,0-0.2,0.1-0.3,0.1c-0.2,0.2-0.5,0.4-0.7,0.7c-0.3,0.3-0.5,0.6-0.8,0.8c-0.2,0.2-0.4,0.3-0.7,0.4c-0.4,0.2-0.7-0.1-0.9-0.3
		c-0.2-0.3-0.4-0.6-0.6-0.8c-0.1-0.2-0.2-0.3-0.3-0.5c-0.1-0.2-0.3-0.4-0.5-0.5c-0.3-0.3-0.9-0.6-1.4-0.7c-0.1,0-0.3,0-0.4,0
		c-0.1,0-0.2,0-0.3,0.1c-0.3,0-0.5,0-0.8-0.1c-0.2-0.1-0.4-0.3-0.5-0.6c-0.1-0.1-0.1-0.2-0.2-0.2c-0.2-0.3-0.5-0.6-0.5-0.9
		c-0.1-0.3,0-0.7,0.1-0.9c0.1-0.1,0.2-0.2,0.3-0.3c0.1-0.1,0.1-0.1,0.2-0.2c0.1-0.1,0.2-0.3,0.3-0.5c0.1-0.2,0.3-0.4,0.4-0.6
		c0.3-0.3,0.6-0.4,1-0.4c0.9-0.1,1.4,0.1,1.9,0.3c0.1,0,0.2,0.1,0.2,0.1c0.2,0.1,0.3,0.1,0.4,0.2c0.5,0.2,0.8,0.5,1.2,0.9l0,0l0,0
		c0.1,0,0.2,0,0.3,0c0.1-0.1,0.3-0.3,0.3-0.5c0-0.2,0-0.4,0-0.6c0-0.2,0-0.4,0-0.5C26,9,26.2,8.7,26.5,8.4c0.4-0.3,1-0.4,1.6-0.4v0
		C27.5,8,26.9,8.2,26.5,8.4z"/>
	<path d="M7.7,1.3c0,0.2,0.1,0.5,0,0.8C7.6,2.4,7.3,2.7,7,3C6.5,3.5,6.1,3.9,6.2,4.5c0.1,0.3,0.2,0.5,0.5,0.6
		c0.3,0.1,0.6,0.1,0.9,0.1c0.7,0,1.1,0.1,1.4,0.2c0.3,0.1,0.5,0.3,0.7,0.4c0.3,0.2,0.6,0.4,0.9,0.5c0.1,0,0.2,0,0.4,0
		c0.3-0.1,0.5-0.2,0.8-0.4c0.4-0.3,0.9-0.6,1.7-0.4c0.2,0,0.4,0.1,0.6,0.1c0.6,0.2,1.3,0.4,2,0c0.7-0.3,1.1-0.9,1.5-1.5
		c0.2-0.3,0.4-0.6,0.6-0.8c0.3-0.3,0.6-0.7,1.1-0.6c0.2,0.1,0.4,0.1,0.6,0.1c0.3,0,0.6,0.1,0.9,0.3c0.2,0.1,0.3,0.3,0.5,0.5
		c0.1,0.1,0.1,0.2,0.2,0.2c0.2,0.2,0.3,0.4,0.4,0.5c0.1,0.2,0.2,0.3,0.4,0.5c0.2,0.2,0.3,0.3,0.5,0.5c0.2,0.2,0.4,0.4,0.6,0.7
		c0.4,0.4,0.7,0.8,1.2,1c0.3,0.1,0.6,0.1,1.1,0c0.2-0.1,0.5-0.2,0.7-0.3c0.4-0.2,0.9-0.5,1.3-0.7C27.8,5.6,28,5.4,28.2,5v0
		c-0.1,0.3-0.4,0.6-0.7,0.8c-0.4,0.2-0.9,0.5-1.3,0.7c-0.2,0.1-0.5,0.2-0.7,0.3c-0.4,0.1-0.7,0.1-1.1,0c-0.4-0.1-0.8-0.5-1.2-1
		c-0.2-0.2-0.4-0.5-0.6-0.7c-0.2-0.2-0.3-0.3-0.5-0.5c-0.1-0.1-0.2-0.3-0.3-0.5c-0.1-0.2-0.3-0.4-0.4-0.5c-0.1-0.1-0.1-0.2-0.2-0.2
		c-0.1-0.2-0.3-0.3-0.5-0.5c-0.3-0.2-0.6-0.2-0.9-0.3c-0.2,0-0.4-0.1-0.5-0.1c-0.5-0.2-0.8,0.3-1.1,0.6c-0.2,0.2-0.4,0.5-0.6,0.8
		c-0.4,0.6-0.8,1.2-1.5,1.5c-0.7,0.4-1.4,0.2-2,0c-0.2-0.1-0.4-0.1-0.6-0.1c-0.8-0.2-1.3,0.1-1.7,0.4c-0.2,0.2-0.5,0.3-0.8,0.4
		c-0.1,0-0.2,0-0.4,0c-0.3,0-0.6-0.2-0.9-0.5C9.6,5.6,9.3,5.5,9.1,5.4C8.8,5.3,8.4,5.2,7.7,5.2c-0.6,0-1.3,0.1-1.5-0.7
		C6.1,3.9,6.6,3.5,7,3c0.3-0.3,0.6-0.6,0.7-1C7.7,1.8,7.7,1.5,7.7,1.3c0-0.4-0.1-0.7-0.3-1.1c0,0,0-0.1,0-0.1h0c0,0,0,0.1,0,0.1
		C7.5,0.5,7.6,0.9,7.7,1.3z"/>
	<path d="M26.7,26.1c0,0.3-0.1,0.5-0.1,0.8c0,0.2,0,0.4-0.1,0.7h0c0-0.2,0.1-0.4,0.1-0.7C26.7,26.6,26.7,26.4,26.7,26.1
		c0.2-0.9,0.6-1.4,1.3-1.6c0,0,0.1,0,0.1,0v0c0,0-0.1,0-0.1,0C27.3,24.6,26.9,25.2,26.7,26.1z"/>
	<path d="M22.9,26.8c-0.1-0.3-0.2-0.5-0.3-0.8l0,0c-0.1-0.2-0.1-0.4-0.2-0.6c-0.1-0.4-0.3-0.8-0.6-1.1c-0.2-0.3-0.7-0.4-1.1-0.4
		c-0.3,0-0.5,0-0.7,0.1c-0.2,0.1-0.4,0.2-0.6,0.4c-0.1,0.1-0.3,0.2-0.5,0.3c-0.1,0-0.3,0.1-0.4,0.2c-0.4,0.2-0.6,0.5-0.6,0.8
		c-0.1,0.3-0.1,0.7,0,1.1c0,0.2,0,0.5,0,0.7c0,0,0,0.1,0,0.1h0c0,0,0-0.1,0-0.1c0-0.2,0-0.5,0-0.7c0-0.4,0-0.8,0-1.1
		c0.1-0.3,0.3-0.6,0.6-0.8c0.1-0.1,0.2-0.1,0.4-0.2c0.2-0.1,0.4-0.1,0.5-0.3c0.2-0.2,0.4-0.3,0.6-0.4c0.2-0.1,0.5-0.1,0.7-0.1
		c0.5,0,0.9,0.2,1.1,0.4c0.3,0.3,0.4,0.7,0.6,1.1c0.1,0.2,0.1,0.4,0.2,0.6l0,0C22.7,26.3,22.8,26.5,22.9,26.8c0,0.2,0.1,0.3,0.1,0.5
		c0,0.1,0,0.2,0.1,0.2h0c0-0.1,0-0.2-0.1-0.2C23,27.1,23,27,22.9,26.8z"/>
	<path d="M22.3,27c0-0.2-0.1-0.5-0.2-0.7c0-0.1-0.1-0.2-0.1-0.2c0-0.1-0.1-0.1-0.1-0.2c0-0.1-0.1-0.2-0.1-0.3
		c-0.1-0.3-0.2-0.6-0.5-0.7c-0.1,0-0.2,0-0.3,0c-0.1,0-0.3,0-0.4,0c-0.1,0-0.1,0-0.1,0c-0.4,0-0.9,0.2-1.2,0.4
		c-0.4,0.3-0.5,0.8-0.6,1.1c0,0.2-0.1,0.6,0,0.9c0,0,0,0,0,0h0c0,0,0,0,0,0c-0.1-0.3-0.1-0.7,0-0.9c0.1-0.3,0.2-0.8,0.6-1.1
		c0.3-0.2,0.8-0.4,1.2-0.4c0,0,0.1,0,0.1,0c0.1,0,0.3,0,0.4,0c0.1,0,0.2,0,0.3,0c0.3,0.1,0.4,0.4,0.5,0.7c0,0.1,0.1,0.2,0.1,0.3
		c0,0.1,0.1,0.1,0.1,0.2c0.1,0.1,0.1,0.1,0.1,0.2C22.2,26.6,22.3,26.8,22.3,27c0,0.2,0,0.3,0,0.5h0C22.3,27.4,22.3,27.2,22.3,27z"/>
	<path d="M28.2,25.5L28.2,25.5c-0.6,0.1-1,0.7-1.1,2.1h0C27.2,26.2,27.6,25.6,28.2,25.5C28.2,25.5,28.2,25.5,28.2,25.5L28.2,25.5
		C28.2,25.5,28.2,25.5,28.2,25.5L28.2,25.5z"/>
	<path d="M28,27.1c-0.1,0.1-0.1,0.2-0.1,0.4h0C27.9,27.4,28,27.3,28,27.1c0.1,0,0.1,0,0.2,0v0C28.1,27.1,28.1,27.1,28,27.1L28,27.1z
		"/>
	<path d="M7.2,25.8c0.1-0.3,0.3-0.5,0.5-0.8c0,0,0.1-0.1,0.1-0.1c0.2-0.2,0.4-0.4,0.5-0.7c0.1-0.5-0.2-0.8-0.5-1
		c-0.1-0.1-0.3-0.2-0.5-0.3c-0.2-0.1-0.4-0.2-0.6-0.4c-0.2-0.2-0.4-0.4-0.5-0.7c-0.1-0.1-0.1-0.3-0.1-0.4c0-0.1-0.1-0.3-0.1-0.4
		c-0.3-0.6-0.6-1.2-1.2-1.7c-0.2-0.2-0.5-0.5-0.6-0.9c-0.1-0.2,0-0.5,0.1-0.6l0,0c0.1-0.4,0.5-1.3,1.4-1.6c0.1,0,0.3-0.1,0.5-0.1
		c0.2,0,0.5-0.1,0.7-0.2c0.3-0.1,0.5-0.3,0.7-0.4l0,0c0.2-0.2,0.5-0.4,0.8-0.3c0.3,0,0.6,0.2,0.9,0.4c0.3,0.2,0.5,0.5,0.5,0.8
		c0,0.2,0,0.3,0.1,0.5c0,0.1,0,0.2,0,0.4c0.1,0.6,0.4,1.1,0.9,1.5c0.4,0.3,0.9,0.5,1.5,0.6c0.8,0.1,1.5-0.1,1.8-0.2
		c0.4-0.2,0.9-0.7,1.2-1.1c0.4-0.4,0.6-0.7,0.6-1.3c0-0.2,0-0.4,0-0.6c0-0.1,0-0.2,0-0.2c0-0.1,0-0.1,0-0.2c0-0.2,0-0.4,0-0.6
		c0.1-0.4,0.3-0.6,0.8-0.6c0.6,0.1,1.1,0.4,1.3,1c0.2,0.4,0,0.9-0.1,1.3l0,0.1c-0.2,0.6-0.4,1.1-0.7,1.5c-0.2,0.2-0.4,0.4-0.6,0.6
		c-0.1,0.1-0.1,0.1-0.2,0.2c-0.1,0.1-0.2,0.2-0.3,0.3c-0.1,0.1-0.3,0.2-0.4,0.4c-0.2,0.2-0.3,0.4-0.4,0.6c-0.3,0.6-0.6,1.1-0.7,1.6
		c-0.1,0.4-0.5,0.8-0.9,0.9c-0.6,0.2-1.5,0.2-2.5-0.1c-0.5-0.1-0.9-0.4-0.9-0.9c-0.1-0.6-0.5-0.8-0.9-1.1c-0.1-0.1-0.2-0.2-0.3-0.2
		c-0.4-0.3-0.2-0.7,0-1c0.1-0.2,0.2-0.3,0.2-0.5c0.1-0.3,0-0.5-0.1-0.8c0-0.1-0.1-0.3-0.1-0.4C9,17,8.9,16.5,8.6,16.3
		c-0.2-0.1-0.4-0.1-0.7,0c0,0-0.1,0-0.1,0c-0.1,0-0.2,0.1-0.3,0.1c-0.2,0-0.3,0.1-0.5,0.1c-0.2,0-0.4,0.1-0.6,0.1
		c-0.3,0.1-0.6,0.2-0.9,0.5C5.2,17.3,5.1,17.6,5,18c0,0.1,0,0.3,0,0.4c0.1,0.4,0.5,0.7,0.8,0.9c0.1,0.1,0.1,0.1,0.2,0.2l0,0
		c0.3,0.2,0.7,0.6,0.7,1c0,0.4,0,0.7,0.2,1.1c0.2,0.5,0.5,0.8,1.1,1c0,0,0.1,0,0.1,0.1c0.2,0.1,0.4,0.2,0.6,0.3
		C8.8,22.9,8.9,23,9,23.1c0.1,0.1,0.1,0.1,0.2,0.2c0.1,0.1,0.2,0.2,0.2,0.3c0.2,0.3,0.4,0.6,0.8,0.5c0.2,0,0.4-0.2,0.6-0.3
		c0.2-0.1,0.3-0.2,0.5-0.3c0.3-0.1,0.8-0.2,1.3-0.2c0.3,0,0.6,0,0.9-0.1c0.7-0.1,1.1-0.3,1.4-0.7c0.1-0.1,0.1-0.2,0.2-0.4
		c0-0.1,0.1-0.2,0.1-0.3c0-0.1,0.1-0.1,0.2-0.2c0,0,0.1-0.1,0.1-0.1c0.1-0.1,0.1-0.1,0.2-0.2c0.1-0.1,0.1-0.1,0.2-0.2
		c0.1-0.1,0.2-0.2,0.3-0.3c0.1-0.1,0.2-0.2,0.3-0.3c0.1-0.1,0.1-0.2,0.2-0.2c0.1-0.1,0.1-0.2,0.2-0.3c0.2-0.1,0.3-0.3,0.4-0.5
		c0.1-0.2,0.2-0.3,0.2-0.5c0,0,0-0.1,0.1-0.2c0-0.1,0.1-0.2,0.2-0.3c0-0.1,0.1-0.1,0.1-0.2c0.1-0.2,0.2-0.5,0.3-0.7
		c0-0.1,0-0.1,0.1-0.2c0,0,0-0.1,0-0.1c0-0.1,0.1-0.3,0.1-0.4c0.1-0.4,0.3-0.7,0.4-1.1c0-0.2,0.1-0.5,0-0.7
		c-0.2-0.8-0.9-1.6-1.6-1.8c-0.3-0.1-0.7-0.1-1.1,0c-0.7,0.1-0.9,0.5-0.9,1.2c0,0.2,0,0.3,0,0.5c0,0.4,0.1,0.7,0,1
		c0,0.2-0.1,0.4-0.1,0.5c-0.1,0.2-0.3,0.7-0.6,1.1c-0.3,0.4-0.7,0.8-1.1,0.9c-0.7,0.2-1.7,0-2.3-0.5c-0.3-0.3-0.6-0.7-0.4-1.4
		c0,0,0-0.1,0-0.1c0-0.1,0-0.1,0.1-0.2c0.1-0.2,0.2-0.3,0.3-0.4c0.2-0.3,0.5-0.6,0.4-1c0-0.1,0-0.2-0.1-0.2
		c-0.1-0.2-0.1-0.4-0.1-0.5c0.2-0.2,0.4-0.4,0.6-0.6c0.4-0.4,0.8-0.7,0.9-1.1c0.1-0.3-0.1-0.7-0.2-0.8c-0.1-0.2-0.2-0.3-0.4-0.5
		c-0.1-0.1-0.2-0.3-0.3-0.4c-0.1-0.1-0.2-0.2-0.2-0.3c-0.2-0.3-0.3-0.5-0.5-0.8C11.1,9.8,11,9.7,11,9.6c-0.1-0.2-0.2-0.4-0.3-0.5
		c-0.3-0.3-0.5-0.5-0.9-0.4C9.5,8.7,9.1,8.9,8.8,9.1c0,0-0.1,0.1-0.1,0.1c-0.5,0.4-1.2,0.9-1.3,1.4c-0.1,0.4,0.1,0.6,0.4,0.9
		c0,0,0.1,0,0.1,0.1C8,11.7,8.2,11.9,8.3,12c0.2,0.2,0.3,0.4,0.4,0.6C8.8,12.7,8.9,12.9,9,13c0.3,0.4,0.7,0.6,1,0.7
		c0.4,0.2,0.7,0.3,1,0.7c0,0,0,0,0,0c0,0,0,0.1,0,0.1c-0.3,0.4-0.8,0.5-1.3,0.3c-0.2-0.1-0.3-0.1-0.5-0.2c-0.4-0.2-0.8-0.4-1.2-0.3
		c-0.3,0.1-0.5,0.3-0.8,0.5c-0.2,0.2-0.4,0.4-0.8,0.6c-0.2,0.1-0.4,0.1-0.6,0.1c-0.7,0.1-1,0.1-1.3,0.5c-0.4,0.5-0.8,1.3-1,1.6
		c-0.1,0.1-0.1,0.2-0.1,0.3c-0.1,0.6,0.2,1.1,0.6,1.4c0.1,0.1,0.2,0.2,0.3,0.2c0.1,0.1,0.2,0.1,0.2,0.2C4.7,20,4.9,20.1,5,20.3
		c0.1,0.1,0.1,0.2,0.2,0.3c0.5,0.6,0.6,1.1,0.4,1.7c-0.1,0.4-0.4,0.9-0.9,1.1c-0.2,0.1-0.4,0.1-0.7,0.1c-0.2,0-0.4,0.1-0.7,0.1
		c-0.2,0-0.4,0.1-0.6,0.2c-0.2,0.1-0.5,0.2-0.7,0.2c-0.4,0.1-0.8,0-1.2-0.1c-0.3-0.1-0.6-0.1-0.9-0.1v0c0.3,0,0.6,0,0.9,0.1
		c0.4,0.1,0.7,0.2,1.2,0.1c0.2,0,0.5-0.1,0.7-0.2c0.2-0.1,0.4-0.1,0.6-0.2c0.2,0,0.4-0.1,0.7-0.1c0.2,0,0.5-0.1,0.7-0.1
		c0.4-0.1,0.8-0.5,0.9-1.1c0.1-0.6,0-1.1-0.4-1.7C5.1,20.5,5,20.4,5,20.3c-0.1-0.2-0.2-0.3-0.4-0.5c-0.1-0.1-0.2-0.1-0.2-0.2
		c-0.1-0.1-0.2-0.1-0.3-0.2C3.8,19,3.4,18.6,3.5,18c0-0.1,0-0.2,0.1-0.3c0.1-0.3,0.6-1.2,1-1.6c0.3-0.4,0.6-0.4,1.3-0.5
		c0.3,0,0.5,0,0.7-0.1c0.3-0.1,0.5-0.3,0.8-0.6c0.2-0.2,0.4-0.4,0.8-0.5c0.4-0.1,0.8,0.1,1.2,0.3c0.2,0.1,0.3,0.2,0.5,0.2
		c0.5,0.2,1,0.1,1.3-0.3l0,0c0,0,0-0.1,0-0.1c0,0,0,0,0,0v0l0,0c-0.3-0.4-0.7-0.5-1-0.7c-0.4-0.2-0.8-0.3-1-0.7
		c-0.1-0.1-0.2-0.3-0.3-0.4c-0.1-0.2-0.3-0.4-0.4-0.6c-0.1-0.1-0.2-0.3-0.4-0.4c0,0-0.1,0-0.1-0.1c-0.3-0.2-0.5-0.4-0.4-0.8
		c0.2-0.5,0.8-1,1.3-1.4c0,0,0.1-0.1,0.1-0.1c0.3-0.2,0.6-0.5,0.9-0.5s0.6,0.1,0.8,0.4c0.1,0.2,0.2,0.3,0.3,0.5
		c0.1,0.1,0.1,0.2,0.2,0.3c0.2,0.3,0.3,0.5,0.5,0.8c0.1,0.1,0.2,0.2,0.2,0.3c0.1,0.1,0.2,0.3,0.3,0.4c0.1,0.2,0.2,0.3,0.4,0.5
		c0.1,0.1,0.3,0.5,0.2,0.8c-0.1,0.3-0.5,0.7-0.9,1.1c-0.2,0.2-0.4,0.4-0.6,0.6c-0.1,0.1,0,0.3,0.1,0.5c0,0.1,0.1,0.2,0.1,0.2
		c0.1,0.4-0.1,0.7-0.4,1c-0.1,0.1-0.2,0.3-0.3,0.4l0,0c0,0.1,0,0.1-0.1,0.2c0,0,0,0.1,0,0.1c-0.1,0.5,0,1,0.4,1.4
		c0.6,0.5,1.6,0.8,2.3,0.5c0.4-0.1,0.8-0.5,1.1-0.9c0.3-0.5,0.5-0.9,0.6-1.1c0-0.1,0.1-0.3,0.1-0.5c0-0.3,0-0.7,0-1
		c0-0.2,0-0.3,0-0.5c0-0.4,0-0.6,0.2-0.8c0.1-0.2,0.4-0.3,0.7-0.4c0.4-0.1,0.8-0.1,1.1,0c0.7,0.1,1.5,1,1.6,1.7c0,0.2,0,0.5,0,0.7
		c-0.1,0.3-0.2,0.7-0.4,1.1c0,0.1-0.1,0.3-0.1,0.4c0,0,0,0.1,0,0.1c0,0.1,0,0.1-0.1,0.2c-0.1,0.2-0.2,0.5-0.3,0.7
		c0,0.1-0.1,0.1-0.1,0.2c-0.1,0.1-0.1,0.2-0.2,0.3c0,0.1,0,0.1-0.1,0.2c-0.1,0.2-0.1,0.3-0.2,0.5c-0.1,0.2-0.3,0.3-0.4,0.5
		c-0.1,0.1-0.2,0.2-0.2,0.3c-0.1,0.1-0.1,0.2-0.2,0.2c-0.1,0.1-0.2,0.2-0.3,0.3c-0.1,0.1-0.2,0.2-0.3,0.3c-0.1,0.1-0.1,0.1-0.2,0.2
		c0,0.1-0.1,0.1-0.2,0.2c0,0-0.1,0.1-0.1,0.1c-0.1,0.1-0.1,0.1-0.2,0.2c-0.1,0.1-0.1,0.2-0.1,0.3c0,0.1-0.1,0.2-0.2,0.4
		c-0.3,0.4-0.7,0.6-1.4,0.7c-0.3,0-0.6,0.1-0.9,0.1c-0.5,0-1,0.1-1.3,0.2c-0.2,0.1-0.4,0.2-0.6,0.3c-0.2,0.1-0.4,0.3-0.6,0.3
		c-0.4,0.1-0.6-0.2-0.8-0.5c-0.1-0.1-0.2-0.2-0.2-0.3c-0.1-0.1-0.1-0.1-0.2-0.2c-0.1-0.1-0.2-0.2-0.4-0.3c-0.2-0.1-0.4-0.2-0.6-0.3
		c0,0-0.1,0-0.1-0.1c-0.6-0.2-0.9-0.5-1.1-1c-0.1-0.3-0.2-0.6-0.2-1c0-0.4-0.4-0.7-0.7-1l0,0c-0.1-0.1-0.1-0.1-0.2-0.2
		C5.5,19,5.2,18.7,5,18.4c0-0.1,0-0.2,0-0.4c0.1-0.7,0.6-1.2,1.3-1.3c0.2,0,0.4-0.1,0.6-0.1c0.2,0,0.4,0,0.5-0.1
		c0.1,0,0.2-0.1,0.3-0.1c0.1,0,0.1,0,0.1,0c0.3-0.1,0.5-0.1,0.6,0C8.9,16.6,9,17,9.1,17.6c0,0.1,0.1,0.3,0.1,0.4
		c0.1,0.3,0.2,0.5,0.1,0.8c0,0.2-0.1,0.3-0.2,0.5c-0.2,0.4-0.4,0.7,0,1c0.1,0.1,0.2,0.2,0.3,0.2c0.4,0.3,0.8,0.6,0.9,1.1
		c0.1,0.5,0.4,0.8,1,0.9c1.1,0.2,2,0.3,2.6,0.1c0.5-0.1,0.8-0.5,1-0.9c0.1-0.5,0.4-1,0.7-1.6c0.1-0.2,0.2-0.4,0.4-0.6
		c0.1-0.1,0.3-0.2,0.4-0.4c0.1-0.1,0.2-0.2,0.3-0.3c0.1-0.1,0.1-0.1,0.2-0.2c0.2-0.2,0.4-0.4,0.6-0.6c0.3-0.4,0.6-0.8,0.7-1.5l0-0.1
		c0.1-0.4,0.2-0.8,0.1-1.3c-0.2-0.6-0.7-0.9-1.3-1c-0.5,0-0.7,0.2-0.8,0.6c0,0.2,0,0.4,0,0.6c0,0.1,0,0.1,0,0.2c0,0.1,0,0.2,0,0.2
		c0,0.2,0,0.4,0,0.6c0,0.7-0.2,0.9-0.6,1.3c-0.4,0.4-0.8,0.9-1.2,1.1c-0.3,0.1-1,0.4-1.8,0.2c-1.4-0.2-2.2-0.9-2.4-2
		c0-0.1,0-0.2,0-0.4c0-0.1,0-0.3-0.1-0.5c0-0.3-0.2-0.6-0.5-0.8c-0.3-0.2-0.6-0.4-0.9-0.4c-0.3,0-0.6,0.2-0.8,0.3l0,0
		c-0.2,0.2-0.4,0.3-0.7,0.4C6.7,16,6.5,16,6.3,16.1c-0.2,0-0.4,0.1-0.5,0.1c-0.8,0.2-1.2,1.2-1.4,1.6l0,0c-0.1,0.2-0.1,0.4-0.1,0.6
		c0.1,0.4,0.4,0.7,0.6,0.9c0.6,0.5,0.9,1.1,1.2,1.7c0.1,0.1,0.1,0.3,0.1,0.4c0,0.1,0.1,0.3,0.1,0.4c0.1,0.3,0.3,0.5,0.5,0.7
		c0.2,0.2,0.4,0.3,0.6,0.4c0.2,0.1,0.3,0.2,0.5,0.3c0.3,0.2,0.6,0.5,0.5,0.9c0,0.2-0.3,0.5-0.5,0.7c0,0.1-0.1,0.1-0.1,0.1
		C7.5,25.2,7.3,25.4,7.2,25.8c-0.1,0.2-0.1,0.7,0,1c0.1,0.3,0.1,0.5,0.2,0.7h0c-0.1-0.2-0.1-0.5-0.2-0.8C7.1,26.5,7.1,26,7.2,25.8z"
		/>
</g>
</svg>
