<svg xmlns="http://www.w3.org/2000/svg" viewBox="4759.423 140 19.212 15.604">
  <defs>
    <style>
      .cls-1 {
        fill: #ebebeb;
      }
    </style>
  </defs>
  <path id="twitter" class="cls-1" d="M127.212,257.853a8.251,8.251,0,0,1-1.975,2.036q.012.171.012.512a11.185,11.185,0,0,1-.463,3.163,11.432,11.432,0,0,1-1.408,3.029,11.908,11.908,0,0,1-2.249,2.566,10.014,10.014,0,0,1-3.145,1.78,11.511,11.511,0,0,1-3.937.664A10.934,10.934,0,0,1,108,269.836a8.436,8.436,0,0,0,.951.049,7.709,7.709,0,0,0,4.888-1.682,3.946,3.946,0,0,1-3.681-2.731,4.994,4.994,0,0,0,.744.061,4.074,4.074,0,0,0,1.036-.134,3.874,3.874,0,0,1-2.261-1.359,3.8,3.8,0,0,1-.9-2.505v-.049a3.906,3.906,0,0,0,1.78.5,3.933,3.933,0,0,1-1.28-1.4,3.947,3.947,0,0,1,.061-3.864,11.162,11.162,0,0,0,3.59,2.907,10.971,10.971,0,0,0,4.529,1.213,4.374,4.374,0,0,1-.1-.9,3.941,3.941,0,0,1,6.814-2.694,7.72,7.72,0,0,0,2.5-.951,3.823,3.823,0,0,1-1.731,2.17A7.844,7.844,0,0,0,127.212,257.853Z" transform="translate(4651.423 -116)"/>
</svg>
