<svg xmlns="http://www.w3.org/2000/svg" viewBox="261 2728 77.288 60"><defs><style>.a{fill:#4062bb;}</style></defs><g transform="translate(261 2670.736)"><g transform="translate(0 57.264)"><g transform="translate(0 0)"><path class="a" d="M77.288,64.149a4.346,4.346,0,0,0-1.282-3.094l-1.719-1.719a4.376,4.376,0,0,0-6.189,0l-8.1,8.1V58.8a1.54,1.54,0,0,0-1.54-1.54H1.54A1.54,1.54,0,0,0,0,58.8v56.921a1.54,1.54,0,0,0,1.54,1.54H58.461a1.54,1.54,0,0,0,1.54-1.54V83.25L76.007,67.243A4.348,4.348,0,0,0,77.288,64.149ZM56.921,114.185H3.079V60.343H56.921V70.514L28.734,98.7a1.541,1.541,0,0,0-.372.6L25.5,107.9a1.54,1.54,0,0,0,1.948,1.947l8.6-2.865a1.54,1.54,0,0,0,.6-.372l20.28-20.28Zm-22.2-10.01-5.329,1.776,1.776-5.329L63.859,67.93l3.553,3.553ZM73.829,65.065l-4.24,4.24-1.776-1.776-1.776-1.776,4.24-4.24a1.3,1.3,0,0,1,1.834,0l1.719,1.719h0a1.3,1.3,0,0,1,0,1.834Z" transform="translate(0 -57.264)"/></g></g><g transform="translate(45.015 66.887)"><path class="a" d="M301.209,121.009h-1.468a1.54,1.54,0,0,0,0,3.079h1.468a1.54,1.54,0,1,0,0-3.079Z" transform="translate(-298.202 -121.009)"/></g><g transform="translate(10.275 66.887)"><path class="a" d="M97.66,121.009H69.608a1.54,1.54,0,1,0,0,3.079H97.66a1.54,1.54,0,1,0,0-3.079Z" transform="translate(-68.068 -121.009)"/></g><g transform="translate(10.275 75.857)"><path class="a" d="M96.192,180.434H69.608a1.54,1.54,0,1,0,0,3.079H96.193a1.54,1.54,0,1,0,0-3.079Z" transform="translate(-68.068 -180.434)"/></g><g transform="translate(10.275 84.827)"><g transform="translate(0 0)"><path class="a" d="M86.57,239.859H69.608a1.54,1.54,0,0,0,0,3.079H86.57a1.54,1.54,0,1,0,0-3.079Z" transform="translate(-68.068 -239.859)"/></g></g><g transform="translate(10.275 93.635)"><path class="a" d="M79.23,298.2H69.608a1.54,1.54,0,0,0,0,3.079H79.23a1.54,1.54,0,0,0,0-3.079Z" transform="translate(-68.068 -298.202)"/></g></g></svg>