<svg xmlns="http://www.w3.org/2000/svg" viewBox="1141 2728 63.905 60"><defs><style>.a{fill:#4062bb;}</style></defs><path class="a" d="M56.934,0a6.775,6.775,0,0,0-6.971,6.545,6.2,6.2,0,0,0,.844,3.12L39.385,20.388a9.711,9.711,0,0,0-11.381,0l-8.911-8.366a4.111,4.111,0,0,0,.659-2.2A4.517,4.517,0,0,0,15.1,5.455a4.517,4.517,0,0,0-4.648,4.364A4.517,4.517,0,0,0,15.1,14.182a4.812,4.812,0,0,0,2.346-.619l8.911,8.366a8.258,8.258,0,0,0,0,10.685L11.647,46.431a7.194,7.194,0,0,0-4.676-1.7,6.558,6.558,0,1,0,0,13.091,6.775,6.775,0,0,0,6.971-6.545,6.2,6.2,0,0,0-.844-3.12l14.906-14a9.569,9.569,0,0,0,4.529,1.766V47.007a6.687,6.687,0,0,0-5.81,6.447A6.775,6.775,0,0,0,33.7,60a6.775,6.775,0,0,0,6.971-6.545,6.688,6.688,0,0,0-5.81-6.447V35.924a9.569,9.569,0,0,0,4.529-1.766L48.3,42.524a4.109,4.109,0,0,0-.66,2.2,4.657,4.657,0,1,0,4.648-4.364,4.812,4.812,0,0,0-2.346.619l-8.911-8.366a8.258,8.258,0,0,0,0-10.685l11.23-10.544a7.188,7.188,0,0,0,4.674,1.7,6.775,6.775,0,0,0,6.971-6.545A6.775,6.775,0,0,0,56.934,0ZM12.781,9.818a2.328,2.328,0,0,1,4.648,0,2.328,2.328,0,0,1-4.648,0ZM6.971,55.636a4.372,4.372,0,1,1,0-8.727,4.372,4.372,0,1,1,0,8.727Zm31.372-2.182A4.657,4.657,0,1,1,33.7,49.091,4.517,4.517,0,0,1,38.343,53.455ZM33.7,33.818a6.775,6.775,0,0,1-6.971-6.545A6.775,6.775,0,0,1,33.7,20.727a6.775,6.775,0,0,1,6.971,6.545A6.775,6.775,0,0,1,33.7,33.818ZM54.61,44.727a2.328,2.328,0,1,1-2.324-2.182A2.258,2.258,0,0,1,54.61,44.727Zm2.324-33.818a4.517,4.517,0,0,1-4.648-4.364,4.657,4.657,0,0,1,9.3,0A4.517,4.517,0,0,1,56.934,10.909Z" transform="translate(1141 2728)"/></svg>