<svg xmlns="http://www.w3.org/2000/svg" viewBox="1582.7 2723 52 60"><defs><style>.a{fill:#4062bb;}</style></defs><g transform="translate(1548.567 2723)"><g transform="translate(34.133)"><g transform="translate(0)"><path class="a" d="M155.358,310.372a1,1,0,0,0,1.414-1.414l-10-10a1,1,0,1,0-1.414,1.414Z" transform="translate(-132.065 -263.665)"/><path class="a" d="M358.691,343.038l1.293,1.293-1.293,1.293a1,1,0,1,0,1.414,1.414l1.293-1.293,1.293,1.293a1,1,0,0,0,1.414-1.414l-1.293-1.293,1.293-1.293a1,1,0,1,0-1.414-1.414l-1.293,1.293-1.293-1.293a1,1,0,1,0-1.414,1.414Z" transform="translate(-320.398 -301.331)"/><path class="a" d="M290.133,241.933a3,3,0,1,0,3-3A3,3,0,0,0,290.133,241.933Zm4,0a1,1,0,1,1-1-1A1,1,0,0,1,294.133,241.933Z" transform="translate(-260.133 -210.933)"/><path class="a" d="M278.774,136.836a1.025,1.025,0,0,0-.326-.216,1,1,0,0,0-1.089.216l-4,4a1,1,0,1,0,1.414,1.414l2.293-2.293v5.586a1,1,0,1,0,2,0v-5.586l2.293,2.293a1,1,0,1,0,1.414-1.414Z" transform="translate(-245.066 -120.543)"/><path class="a" d="M105.4,238.933a3,3,0,1,0,3,3A3,3,0,0,0,105.4,238.933Zm0,4a1,1,0,1,1,1-1A1,1,0,0,1,105.4,242.933Z" transform="translate(-94.4 -210.933)"/><path class="a" d="M136.825,155.3l1.293,1.293-1.293,1.293a1,1,0,1,0,1.414,1.414l1.293-1.293,1.293,1.293a1,1,0,1,0,1.414-1.414l-1.293-1.293,1.293-1.293a1,1,0,0,0-1.414-1.414l-1.293,1.293-1.293-1.293a1,1,0,1,0-1.414,1.414Z" transform="translate(-124.531 -135.598)"/><path class="a" d="M154.6,12h22a1,1,0,0,0,1-1V5a1,1,0,0,0-1-1h-5.342a6,6,0,0,0-11.316,0H154.6a1,1,0,0,0-1,1v6A1,1,0,0,0,154.6,12Zm1-6h5.1a1,1,0,0,0,.98-.8,4,4,0,0,1,7.838,0,1,1,0,0,0,.98.8h5.1v4h-20Z" transform="translate(-139.6)"/><path class="a" d="M81.133,34.133h-6a1,1,0,0,0,0,2h6a3.3,3.3,0,0,1,3,3v46a3.3,3.3,0,0,1-3,3h-42a3.3,3.3,0,0,1-3-3v-46a3.3,3.3,0,0,1,3-3h6a1,1,0,1,0,0-2h-6a5.267,5.267,0,0,0-5,5v46a5.267,5.267,0,0,0,5,5h42a5.267,5.267,0,0,0,5-5v-46A5.267,5.267,0,0,0,81.133,34.133Z" transform="translate(-34.133 -30.133)"/><path class="a" d="M241.933,415.6a3,3,0,1,0-3-3A3,3,0,0,0,241.933,415.6Zm0-4a1,1,0,1,1-1,1A1,1,0,0,1,241.933,411.6Z" transform="translate(-214.933 -361.6)"/><path class="a" d="M181.667,258a1,1,0,0,0,0-2h-10a1,1,0,0,0,0,2Z" transform="translate(-154.667 -226.001)"/><path class="a" d="M240.933,34.133a2,2,0,1,0,2,2A2,2,0,0,0,240.933,34.133Z" transform="translate(-214.933 -30.133)"/></g></g></g></svg>